<?xml version="1.0" encoding="UTF-8"?>
<svg width="99px" height="99px" viewBox="0 0 99 99" version="1.1" xmlns="http://www.w3.org/2000/svg" xmlns:xlink="http://www.w3.org/1999/xlink">
    <!-- Generator: Sketch 45.2 (43514) - http://www.bohemiancoding.com/sketch -->
    <title>Group 4</title>
    <desc>Created with Sketch.</desc>
    <defs>
        <linearGradient x1="-9.36419213%" y1="-8.81119348%" x2="104.902359%" y2="100%" id="linearGradient-1">
            <stop stop-color="#EAAC45" offset="0%"></stop>
            <stop stop-color="#EF935F" offset="100%"></stop>
        </linearGradient>
        <circle id="path-2" cx="33.5" cy="33.5" r="33.5"></circle>
        <filter x="-35.8%" y="-35.8%" width="171.6%" height="171.6%" filterUnits="objectBoundingBox" id="filter-3">
            <feOffset dx="0" dy="0" in="SourceAlpha" result="shadowOffsetOuter1"></feOffset>
            <feGaussianBlur stdDeviation="8" in="shadowOffsetOuter1" result="shadowBlurOuter1"></feGaussianBlur>
            <feColorMatrix values="0 0 0 0 0   0 0 0 0 0   0 0 0 0 0  0 0 0 0.13 0" type="matrix" in="shadowBlurOuter1"></feColorMatrix>
        </filter>
    </defs>
    <g id="Page-1" stroke="none" stroke-width="1" fill="none" fill-rule="evenodd">
        <g id="Mobile-Copy-2" transform="translate(-54.000000, -510.000000)">
            <g id="Group-4" transform="translate(70.000000, 526.000000)">
                <g id="Oval">
                    <use fill="black" fill-opacity="1" filter="url(#filter-3)" xlink:href="#path-2"></use>
                    <use fill="url(#linearGradient-1)" fill-rule="evenodd" xlink:href="#path-2"></use>
                </g>
                <g id="phone-call" transform="translate(15.000000, 15.000000)" fill-rule="nonzero" fill="#FFFFFF">
                    <path d="M11.6227382,21.9065237 C11.4891518,21.7729373 11.3038544,21.6967356 11.1149661,21.6967356 C10.9260777,21.6967356 10.7407804,21.7729373 10.607194,21.9065237 C10.4736076,22.0407566 10.3967594,22.2253357 10.3967594,22.4149422 C10.3967594,22.6039024 10.4736076,22.7884097 10.607194,22.9227143 C10.7407804,23.0563008 10.9260777,23.1331489 11.1149661,23.1331489 C11.3038544,23.1331489 11.4891518,23.0563726 11.6227382,22.9227143 C11.7563246,22.7884097 11.8331727,22.6039024 11.8331727,22.4149422 C11.8331727,22.2253357 11.7563246,22.0407566 11.6227382,21.9065237 Z" id="Shape"></path>
                    <path d="M33.8082134,30.8433127 C32.837198,30.8433127 31.9243573,30.4651769 31.2377518,29.7786432 L31.2017696,29.742661 L31.8861488,29.0582101 C32.5359103,28.4084485 32.8937927,27.5445177 32.8937927,26.6255723 C32.8937927,25.7066988 32.5359103,24.842768 31.8861488,24.1929346 L26.903231,19.2100169 C26.2534695,18.5602553 25.3895387,18.2023729 24.4705933,18.2023729 C23.5516479,18.2023729 22.6877171,18.5602553 22.0379555,19.2100169 L20.9015372,20.3463634 C20.6401099,20.6077907 20.2925698,20.7517911 19.9229088,20.7517911 C19.5532478,20.7517911 19.2057076,20.6077907 18.9442804,20.3462916 L12.5464956,13.9485786 C12.0068351,13.4089181 12.0068351,12.5309823 12.5464956,11.9913218 L13.6828421,10.8549753 C14.3326037,10.2052137 14.6904861,9.34128295 14.6904861,8.42233755 C14.6904861,7.50339214 14.3326037,6.63946136 13.6828421,5.98969981 L8.6998526,1.00671026 C7.35845804,-0.334612478 5.17597167,-0.334540657 3.83457712,1.00671026 L2.6424259,2.1989333 C0.938408807,3.90302221 0,6.16860508 0,8.57847567 C0,10.9883463 0.938408807,13.2539291 2.6424259,14.9579462 L8.66071033,20.9763025 C8.94124185,21.2566904 9.39593848,21.2567622 9.67647,20.9763025 C9.95692969,20.6958428 9.95692969,20.2410743 9.67647,19.9605428 L3.65811374,13.9421866 C2.22543512,12.5095079 1.4364133,10.6046803 1.4364133,8.57847567 C1.4364133,6.77520242 2.06182765,5.0683125 3.20937823,3.70458171 L8.49264998,8.98785346 C8.63291574,9.1280474 8.81670482,9.19821619 9.0004939,9.19821619 C9.18428298,9.19821619 9.36814388,9.1280474 9.50833782,8.98785346 C9.78879752,8.70739377 9.78879752,8.25262532 9.50833782,7.9720938 L4.20452536,2.66828134 L4.8504086,2.02232628 C5.63174561,1.24106109 6.9030432,1.24106109 7.6843084,2.02232628 L12.6672979,7.00531583 C13.0457928,7.38381073 13.2542164,7.88691449 13.2542164,8.42226573 C13.2542164,8.95747332 13.0457928,9.46072072 12.6672979,9.83921562 L11.5309514,10.9755622 C10.9982575,11.5082561 10.7048701,12.2165515 10.7048701,12.9699502 C10.7048701,13.723349 10.9982575,14.4316444 11.5309514,14.9643383 L17.9287362,21.3619795 C18.4614301,21.8947451 19.1697255,22.1882044 19.9231243,22.1882044 C20.4219906,22.1882044 20.9006753,22.0587835 21.3220472,21.8172506 L26.5938994,27.0891029 C26.7341652,27.2292968 26.9179543,27.2994656 27.1017433,27.2994656 C27.2855324,27.2994656 27.4693933,27.2292968 27.6095873,27.0891029 C27.890047,26.8086432 27.890047,26.3538748 27.6095873,26.0733432 L22.4079038,20.871588 L23.0538589,20.2257047 C23.4323538,19.847138 23.9355293,19.6387144 24.4708088,19.6387144 C25.0060882,19.6387144 25.5092637,19.847138 25.8877586,20.2257047 L30.8706764,25.2086224 C31.2491713,25.5871173 31.4575948,26.0902929 31.4575948,26.6255723 C31.4575948,27.1608518 31.2491713,27.6640273 30.8706764,28.0425222 L29.6787406,29.2345298 C29.678597,29.2346735 29.6785252,29.2347453 29.6783815,29.2348889 C29.6783097,29.2349607 29.6782379,29.2351044 29.6780942,29.2351762 C26.7203756,32.1924639 21.9082474,32.1923203 18.9508161,29.2348889 L13.7105649,23.9945659 C13.4301052,23.714178 12.9753368,23.714178 12.6948771,23.9945659 C12.4144174,24.2750256 12.4143456,24.7297941 12.6948771,25.0103256 L17.9351282,30.2506486 C19.6940163,32.0094648 22.0043435,32.8888371 24.3146706,32.8888371 C26.4004864,32.8888371 28.4860867,32.1718514 30.1661157,30.7382391 L30.2223512,30.7944746 C31.1801516,31.7523469 32.4537475,32.2798696 33.8084289,32.2798696 C34.6507416,32.2798696 35.3359826,32.9651106 35.3359826,33.8074952 C35.3359826,34.6498079 34.6506698,35.3350489 33.8084289,35.3350489 L8.04391446,35.3350489 C7.64724893,35.3350489 7.32570782,35.6566618 7.32570782,36.0532556 C7.32570782,36.4498493 7.64724893,36.7714622 8.04391446,36.7714622 L33.8082134,36.7714622 C35.4425644,36.7714622 36.7721804,35.4418462 36.7721804,33.8074952 C36.7721804,32.1731441 35.4425644,30.8433127 33.8082134,30.8433127 Z" id="Shape"></path>
                    <path d="M5.10429465,35.545268 C4.97070821,35.4116816 4.7854109,35.3348334 4.59652255,35.3348334 C4.4076342,35.3348334 4.22233689,35.4116097 4.08875045,35.545268 C3.95516401,35.6788544 3.8783159,35.8641517 3.8783159,36.0530401 C3.8783159,36.2419284 3.95516401,36.4272258 4.08875045,36.5607404 C4.22233689,36.6943268 4.4076342,36.7712467 4.59652255,36.7712467 C4.7854109,36.7712467 4.97070821,36.6943986 5.10429465,36.5607404 C5.23788109,36.4272258 5.3147292,36.2419284 5.3147292,36.0530401 C5.3147292,35.8641517 5.23788109,35.6788544 5.10429465,35.545268 Z" id="Shape"></path>
                </g>
            </g>
        </g>
    </g>
</svg>