<?xml version="1.0" encoding="UTF-8"?>
<svg width="164px" height="164px" viewBox="0 0 164 164" version="1.1" xmlns="http://www.w3.org/2000/svg" xmlns:xlink="http://www.w3.org/1999/xlink">
    <!-- Generator: Sketch 45.2 (43514) - http://www.bohemiancoding.com/sketch -->
    <title>help</title>
    <desc>Created with Sketch.</desc>
    <defs>
        <linearGradient x1="-9.36419213%" y1="-8.81119348%" x2="104.902359%" y2="100%" id="linearGradient-1">
            <stop stop-color="#EAAC45" offset="0%"></stop>
            <stop stop-color="#EF935F" offset="100%"></stop>
        </linearGradient>
        <rect id="path-2" x="0" y="0" width="132" height="132" rx="15"></rect>
        <filter x="-18.2%" y="-18.2%" width="136.4%" height="136.4%" filterUnits="objectBoundingBox" id="filter-3">
            <feOffset dx="0" dy="0" in="SourceAlpha" result="shadowOffsetOuter1"></feOffset>
            <feGaussianBlur stdDeviation="8" in="shadowOffsetOuter1" result="shadowBlurOuter1"></feGaussianBlur>
            <feColorMatrix values="0 0 0 0 0   0 0 0 0 0   0 0 0 0 0  0 0 0 0.128113678 0" type="matrix" in="shadowBlurOuter1"></feColorMatrix>
        </filter>
    </defs>
    <g id="Page-1" stroke="none" stroke-width="1" fill="none" fill-rule="evenodd">
        <g id="Mobile-Copy-2" transform="translate(-164.000000, -279.000000)">
            <g id="help" transform="translate(180.000000, 295.000000)">
                <g id="Group-Copy-2">
                    <g id="Rectangle-2">
                        <use fill="black" fill-opacity="1" filter="url(#filter-3)" xlink:href="#path-2"></use>
                        <use fill="url(#linearGradient-1)" fill-rule="evenodd" xlink:href="#path-2"></use>
                    </g>
                </g>
                <g id="conversation" transform="translate(30.000000, 12.000000)" fill="#FFFFFF">
                    <path d="M48.8790335,45.0647736 C48.0989467,45.0647736 47.4663446,45.6972344 47.4663446,46.4774625 L47.4663446,56.2250154 C47.4663446,60.1197985 44.2976836,63.2884595 40.4029005,63.2884595 L25.1503818,63.2884595 C24.3704363,63.2884595 23.738258,63.9203552 23.7376929,64.7001595 L23.7357152,67.5088674 L20.3639095,64.137203 C20.145649,63.6361222 19.6461223,63.2884595 19.0683325,63.2884595 L9.8888218,63.2884595 C5.9940387,63.2884595 2.82537766,60.1197985 2.82537766,56.2250154 L2.82537766,34.4696074 C2.82537766,30.5748243 5.9940387,27.4061633 9.8888218,27.4061633 L24.156979,27.4061633 C24.9370657,27.4061633 25.5696678,26.7737025 25.5696678,25.9934744 C25.5696678,25.2132464 24.9370657,24.5807856 24.156979,24.5807856 L9.8888218,24.5807856 C4.43612546,24.5807856 0,29.0169111 0,34.4696074 L0,56.2250154 C0,61.6777117 4.43612546,66.1138372 9.8888218,66.1138372 L18.3448946,66.1138372 L24.1469489,71.9158915 C24.4171963,72.1861388 24.7784208,72.329668 25.1461437,72.329668 C25.3279567,72.329668 25.511465,72.2944921 25.6859321,72.2223037 C26.2138539,72.003902 26.5581262,71.4891182 26.55855,70.9179681 L26.5619404,66.1138372 L40.4029005,66.1138372 C45.8555968,66.1138372 50.2917223,61.6777117 50.2917223,56.2250154 L50.2917223,46.4774625 C50.2917223,45.6972344 49.6591202,45.0647736 48.8790335,45.0647736 Z" id="Shape" fill-rule="nonzero"></path>
                    <path d="M51.7969422,0 L48.2215681,0 C36.8997147,0 27.688701,9.2110137 27.688701,20.532867 C27.688701,31.8547204 36.8997147,41.0655928 48.2214268,41.0655928 L51.796801,41.0655928 C53.5639334,41.0655928 55.3129835,40.8411166 57.0082101,40.3975323 L62.2898298,45.6761854 C62.5600772,45.9461502 62.9211604,46.0896794 63.2887421,46.0896794 C63.4708376,46.0896794 63.6544872,46.0545034 63.8292368,45.9820325 C64.3570174,45.7633483 64.7011483,45.2482819 64.7011483,44.6769905 L64.7011483,36.5037381 C66.9372935,34.6928123 68.794838,32.4052452 70.0984673,29.8496911 C71.5791064,26.9471807 72.329668,23.8125654 72.329668,20.532867 C72.329668,9.2110137 63.1186543,0 51.7969422,0 Z M62.4384447,34.6864552 C62.0842836,34.9533121 61.8757707,35.3711854 61.8757707,35.814911 L61.8757707,41.2678899 L58.4187799,37.8127355 C58.1498039,37.5440421 57.7890032,37.3992415 57.4200089,37.3992415 C57.2815654,37.3992415 57.1417092,37.4197255 57.0052434,37.4616824 C55.3237199,37.9784439 53.5714207,38.2403564 51.7969422,38.2403564 L48.2215681,38.2403564 C38.4574867,38.2403564 30.5140787,30.2968072 30.5140787,20.532867 C30.5140787,10.7689269 38.457628,2.82537766 48.2215681,2.82537766 L51.7969422,2.82537766 C61.5608824,2.82537766 69.5042904,10.7689269 69.5042904,20.532867 C69.5042904,26.145621 66.9289586,31.3044781 62.4384447,34.6864552 Z" id="Shape" fill-rule="nonzero"></path>
                    <path d="M56.3709461,15.4577824 C56.1670951,12.5003184 53.7830415,10.1162647 50.8254361,9.9124137 C49.148857,9.79727956 47.5488457,10.3627789 46.3241857,11.506068 C45.1163368,12.6335349 44.4236954,14.2273305 44.4236954,15.878905 C44.4236954,16.659133 45.0562975,17.2915938 45.8363843,17.2915938 C46.616471,17.2915938 47.2490731,16.659133 47.2490731,15.878905 C47.2490731,14.994703 47.6053532,14.1752022 48.2520822,13.5715603 C48.898246,12.9684834 49.7427514,12.6699823 50.6313327,12.731293 C52.1892459,12.8386573 53.444985,14.0943964 53.5523494,15.6521684 C53.6608439,17.22548 52.6285922,18.6158483 51.0980851,18.9582841 C49.8580268,19.2357362 48.9920486,20.3133352 48.9920486,21.5786806 L48.9920486,24.9726655 C48.9920486,25.7528935 49.6246506,26.3853543 50.4047374,26.3853543 C51.1849654,26.3853543 51.8174262,25.7528935 51.817285,24.9726655 L51.817285,21.6915544 C54.663853,21.0038575 56.573667,18.3991418 56.3709461,15.4577824 Z" id="Shape" fill-rule="nonzero"></path>
                    <path d="M51.4035084,29.5619264 C51.1407483,29.2991663 50.7762746,29.1480086 50.4047374,29.1480086 C50.0332002,29.1480086 49.6687265,29.2991663 49.4059664,29.5619264 C49.1432063,29.8246865 48.9920486,30.1891603 48.9920486,30.5606974 C48.9920486,30.9336473 49.1433475,31.298121 49.4059664,31.5608811 C49.6687265,31.8236412 50.0332002,31.9733863 50.4047374,31.9733863 C50.7762746,31.9733863 51.1407483,31.8236412 51.4035084,31.5608811 C51.6662685,31.2967083 51.8174262,30.9336473 51.8174262,30.5606974 C51.8174262,30.1891603 51.6661273,29.8246865 51.4035084,29.5619264 Z" id="Shape" fill-rule="nonzero"></path>
                    <path d="M38.8489428,43.7933537 L9.0412085,43.7933537 C8.26112173,43.7933537 7.62851967,44.4258145 7.62851967,45.2060425 C7.62851967,45.9862706 8.26112173,46.6187313 9.0412085,46.6187313 L38.8489428,46.6187313 C39.6291708,46.6187313 40.2616316,45.9862706 40.2616316,45.2060425 C40.2616316,44.4258145 39.6290296,43.7933537 38.8489428,43.7933537 Z" id="Shape" fill-rule="nonzero"></path>
                    <path d="M39.8475725,52.118329 C39.5849537,51.8555688 39.2204799,51.7044111 38.8489428,51.7044111 C38.4774056,51.7044111 38.1129319,51.8555688 37.8501718,52.118329 C37.5872704,52.3810891 37.436254,52.7455628 37.436254,53.1171 C37.436254,53.4886371 37.5874117,53.8531108 37.8501718,54.115871 C38.1129319,54.3786311 38.4774056,54.5297888 38.8489428,54.5297888 C39.2204799,54.5297888 39.5849537,54.3786311 39.8475725,54.115871 C40.1104739,53.8531108 40.2616316,53.4900498 40.2616316,53.1171 C40.2616316,52.7455628 40.1103326,52.3810891 39.8475725,52.118329 Z" id="Shape" fill-rule="nonzero"></path>
                    <path d="M33.2924138,51.7044111 L9.0412085,51.7044111 C8.26112173,51.7044111 7.62851967,52.3368719 7.62851967,53.1171 C7.62851967,53.897328 8.26112173,54.5297888 9.0412085,54.5297888 L33.2924138,54.5297888 C34.0726419,54.5297888 34.7051026,53.897328 34.7051026,53.1171 C34.7051026,52.3368719 34.0725006,51.7044111 33.2924138,51.7044111 Z" id="Shape" fill-rule="nonzero"></path>
                    <path d="M29.6664654,35.8822962 L9.0412085,35.8822962 C8.26112173,35.8822962 7.62851967,36.514757 7.62851967,37.2949851 C7.62851967,38.0752131 8.26112173,38.7076739 9.0412085,38.7076739 L29.6664654,38.7076739 C30.4466934,38.7076739 31.0791542,38.0752131 31.0791542,37.2949851 C31.0791542,36.514757 30.4465522,35.8822962 29.6664654,35.8822962 Z" id="Shape" fill-rule="nonzero"></path>
                    <text id="Help" font-family="OpenSans, Open Sans" font-size="18" font-weight="normal">
                        <tspan x="17.019043" y="101">Help</tspan>
                    </text>
                </g>
            </g>
        </g>
    </g>
</svg>