<?xml version="1.0" encoding="UTF-8"?>
<svg width="28px" height="29px" viewBox="0 0 28 29" version="1.1" xmlns="http://www.w3.org/2000/svg" xmlns:xlink="http://www.w3.org/1999/xlink">
    <!-- Generator: Sketch 45.2 (43514) - http://www.bohemiancoding.com/sketch -->
    <title>help-icon</title>
    <desc>Created with Sketch.</desc>
    <defs></defs>
    <g id="Page-1" stroke="none" stroke-width="1" fill="none" fill-rule="evenodd">
        <g id="Mobile-Copy-2" transform="translate(-298.000000, -465.000000)" fill-rule="nonzero" fill="#1F4DCE">
            <g id="help-icon" transform="translate(298.000000, 465.000000)">
                <path d="M18.8405513,18.0684918 C18.5398648,18.0684918 18.2960267,18.3220738 18.2960267,18.6349022 L18.2960267,22.543134 C18.2960267,24.1047275 17.074658,25.375186 15.5734036,25.375186 L9.69428041,25.375186 C9.39364838,25.375186 9.14997362,25.6285414 9.14975581,25.9411999 L9.14899347,27.0673371 L7.84932215,25.7154854 C7.7651931,25.5145796 7.5726492,25.375186 7.34993864,25.375186 L3.81167222,25.375186 C2.31041789,25.375186 1.08904921,24.1047275 1.08904921,22.543134 L1.08904921,13.8204138 C1.08904921,12.2588203 2.31041789,10.9883618 3.81167222,10.9883618 L9.31137071,10.9883618 C9.6120572,10.9883618 9.85589531,10.7347799 9.85589531,10.4219514 C9.85589531,10.1091229 9.6120572,9.855541 9.31137071,9.855541 L3.81167222,9.855541 C1.70991616,9.855541 0,11.634183 0,13.8204138 L0,22.543134 C0,24.7293649 1.70991616,26.5080068 3.81167222,26.5080068 L7.07108759,26.5080068 L9.30750458,28.834311 C9.41167214,28.9426653 9.55090708,29.0002126 9.69264684,29.0002126 C9.76272715,29.0002126 9.8334609,28.986109 9.90070969,28.9571654 C10.1041985,28.8695984 10.2368992,28.6631984 10.2370625,28.4341987 L10.2383694,26.5080068 L15.5734036,26.5080068 C17.6751597,26.5080068 19.3850759,24.7293649 19.3850759,22.543134 L19.3850759,18.6349022 C19.3850759,18.3220738 19.1412377,18.0684918 18.8405513,18.0684918 Z" id="Shape"></path>
                <path d="M19.9652668,0 L18.5871295,0 C14.2230915,0 10.6726822,3.69310911 10.6726822,8.23254864 C10.6726822,12.7719882 14.2230915,16.4650406 18.5870751,16.4650406 L19.9652124,16.4650406 C20.6463582,16.4650406 21.3205341,16.375038 21.9739636,16.1971852 L24.0097778,18.3136343 C24.1139453,18.4218753 24.2531258,18.4794226 24.3948111,18.4794226 C24.4650003,18.4794226 24.5357885,18.465319 24.6031462,18.4362621 C24.8065806,18.3485818 24.9392268,18.1420686 24.9392268,17.9130122 L24.9392268,14.6359882 C25.8011548,13.9099067 26.5171502,12.9927183 27.0196375,11.9680819 C27.5903537,10.8043351 27.8796597,9.54752703 27.8796597,8.23254864 C27.8796597,3.69310911 24.3292504,0 19.9652668,0 Z M24.0670618,13.9073578 C23.9305494,14.0143527 23.8501776,14.1818969 23.8501776,14.3598064 L23.8501776,16.5461506 L22.5176715,15.160824 C22.413994,15.0530928 22.2749224,14.9950357 22.1326926,14.9950357 C22.0793291,14.9950357 22.0254212,15.0032487 21.9728201,15.0200711 C21.3246725,15.227264 20.6492442,15.3322765 19.9652668,15.3322765 L18.5871295,15.3322765 C14.8235388,15.3322765 11.7617314,12.1473508 11.7617314,8.23254864 C11.7617314,4.3177465 14.8235933,1.13282081 18.5871295,1.13282081 L19.9652668,1.13282081 C23.7288031,1.13282081 26.7906105,4.3177465 26.7906105,8.23254864 C26.7906105,10.4829538 25.7979421,12.5513713 24.0670618,13.9073578 Z" id="Shape"></path>
                <path d="M21.7283286,6.19771927 C21.6497537,5.01193909 20.730814,4.05606489 19.5907973,3.97433187 C18.9445555,3.92816942 18.3278269,4.15490351 17.8557785,4.61329945 C17.39021,5.06535159 17.1232296,5.70437581 17.1232296,6.36656621 C17.1232296,6.67939467 17.3670677,6.93297661 17.6677542,6.93297661 C17.9684407,6.93297661 18.2122788,6.67939467 18.2122788,6.36656621 C18.2122788,6.01204994 18.3496079,5.68347526 18.5988912,5.4414481 C18.8479568,5.1996475 19.1734736,5.07996498 19.5159796,5.10454719 C20.1164813,5.14759438 20.6005092,5.65107659 20.6418931,6.27565734 C20.6837126,6.9064686 20.2858285,7.46392972 19.6958905,7.6012276 C19.2179068,7.71247061 18.8841132,8.14452846 18.8841132,8.65186226 L18.8841132,10.0126633 C18.8841132,10.3254917 19.1279513,10.5790737 19.4286378,10.5790737 C19.7293788,10.5790737 19.9731624,10.3254917 19.973108,10.0126633 L19.973108,8.69711845 C21.0703251,8.42138987 21.8064679,7.37704236 21.7283286,6.19771927 Z" id="Shape"></path>
                <path d="M19.8136167,11.8527041 C19.7123351,11.7473517 19.5718478,11.6867458 19.4286378,11.6867458 C19.2854279,11.6867458 19.1449405,11.7473517 19.0436589,11.8527041 C18.9423774,11.9580564 18.8841132,12.1041903 18.8841132,12.2531562 C18.8841132,12.4026886 18.9424318,12.5488225 19.0436589,12.6541748 C19.1449405,12.7595271 19.2854279,12.8195666 19.4286378,12.8195666 C19.5718478,12.8195666 19.7123351,12.7595271 19.8136167,12.6541748 C19.9148983,12.5482561 19.9731624,12.4026886 19.9731624,12.2531562 C19.9731624,12.1041903 19.9148438,11.9580564 19.8136167,11.8527041 Z" id="Shape"></path>
                <path d="M14.9744266,17.5587225 L3.48495746,17.5587225 C3.18427097,17.5587225 2.94043286,17.8123044 2.94043286,18.1251329 C2.94043286,18.4379613 3.18427097,18.6915433 3.48495746,18.6915433 L14.9744266,18.6915433 C15.2751675,18.6915433 15.5189512,18.4379613 15.5189512,18.1251329 C15.5189512,17.8123044 15.2751131,17.5587225 14.9744266,17.5587225 Z" id="Shape"></path>
                <path d="M15.359351,20.896579 C15.2581239,20.7912266 15.1176366,20.7306207 14.9744266,20.7306207 C14.8312166,20.7306207 14.6907293,20.7912266 14.5894477,20.896579 C14.4881117,21.0019313 14.429902,21.1480652 14.429902,21.2970311 C14.429902,21.4459971 14.4881661,21.592131 14.5894477,21.6974833 C14.6907293,21.8028356 14.8312166,21.8634415 14.9744266,21.8634415 C15.1176366,21.8634415 15.2581239,21.8028356 15.359351,21.6974833 C15.460687,21.592131 15.5189512,21.4465635 15.5189512,21.2970311 C15.5189512,21.1480652 15.4606326,21.0019313 15.359351,20.896579 Z" id="Shape"></path>
                <path d="M12.832648,20.7306207 L3.48495746,20.7306207 C3.18427097,20.7306207 2.94043286,20.9842027 2.94043286,21.2970311 C2.94043286,21.6098596 3.18427097,21.8634415 3.48495746,21.8634415 L12.832648,21.8634415 C13.1333889,21.8634415 13.3771726,21.6098596 13.3771726,21.2970311 C13.3771726,20.9842027 13.1333344,20.7306207 12.832648,20.7306207 Z" id="Shape"></path>
                <path d="M11.4350167,14.3868242 L3.48495746,14.3868242 C3.18427097,14.3868242 2.94043286,14.6404062 2.94043286,14.9532346 C2.94043286,15.2660631 3.18427097,15.519645 3.48495746,15.519645 L11.4350167,15.519645 C11.7357576,15.519645 11.9795413,15.2660631 11.9795413,14.9532346 C11.9795413,14.6404062 11.7357031,14.3868242 11.4350167,14.3868242 Z" id="Shape"></path>
            </g>
        </g>
    </g>
</svg>