<?xml version="1.0" encoding="UTF-8"?>
<svg width="164px" height="164px" viewBox="0 0 164 164" version="1.1" xmlns="http://www.w3.org/2000/svg" xmlns:xlink="http://www.w3.org/1999/xlink">
    <!-- Generator: Sketch 45.2 (43514) - http://www.bohemiancoding.com/sketch -->
    <title>map-d</title>
    <desc>Created with Sketch.</desc>
    <defs>
        <linearGradient x1="-35.2245301%" y1="-17.6371709%" x2="155.329869%" y2="135.717081%" id="linearGradient-1">
            <stop stop-color="#FFFFFF" offset="0%"></stop>
            <stop stop-color="#000000" offset="100%"></stop>
        </linearGradient>
        <rect id="path-2" x="0" y="0" width="132" height="132" rx="15"></rect>
        <filter x="-18.2%" y="-18.2%" width="136.4%" height="136.4%" filterUnits="objectBoundingBox" id="filter-3">
            <feOffset dx="0" dy="0" in="SourceAlpha" result="shadowOffsetOuter1"></feOffset>
            <feGaussianBlur stdDeviation="8" in="shadowOffsetOuter1" result="shadowBlurOuter1"></feGaussianBlur>
            <feColorMatrix values="0 0 0 0 0   0 0 0 0 0   0 0 0 0 0  0 0 0 0.128113678 0" type="matrix" in="shadowBlurOuter1"></feColorMatrix>
        </filter>
    </defs>
    <g id="Page-1" stroke="none" stroke-width="1" fill="none" fill-rule="evenodd">
        <g id="map-d" transform="translate(16.000000, 16.000000)">
            <g id="Group-Copy-3">
                <g id="Rectangle-2">
                    <use fill="black" fill-opacity="1" filter="url(#filter-3)" xlink:href="#path-2"></use>
                    <use fill="url(#linearGradient-1)" fill-rule="evenodd" xlink:href="#path-2"></use>
                </g>
            </g>
            <text id="Map" font-family="OpenSans, Open Sans" font-size="18" font-weight="normal" fill="#FFFFFF">
                <tspan x="47.8540039" y="113">Map</tspan>
            </text>
            <g id="route" transform="translate(28.000000, 12.000000)" fill-rule="nonzero" fill="#FFFFFF">
                <path d="M19.7048823,24.9932543 C8.84818318,24.9932543 0.015832563,33.8257529 0.015832563,44.6823041 C0.015832563,49.192513 1.5758579,53.5898224 4.41210619,57.0842318 C4.43415341,57.1179685 4.45782827,57.1509653 4.48298281,57.1832223 L6.37519603,59.6073801 C6.87813885,60.2516322 7.807969,60.3661593 8.45207317,59.8632165 C9.09617735,59.3602737 9.21085245,58.4304436 8.70790963,57.7863394 L6.91675847,55.4916535 C6.88198602,55.4358696 6.8433664,55.3818614 6.80075165,55.3303685 C4.33383118,52.3443768 2.97519013,48.5629097 2.97519013,44.6824521 C2.97519013,35.4576906 10.4801209,27.9527598 19.7048823,27.9527598 C28.9296438,27.9527598 36.4345746,35.4576906 36.4345746,44.6824521 C36.4345746,48.5216266 35.1009401,52.2721684 32.6794457,55.2432155 C32.6613937,55.2654106 32.6440814,55.2879018 32.627361,55.3109847 L19.7044384,71.8749529 L15.5938908,66.6087762 C15.0910959,65.964524 14.1612658,65.8498489 13.5170136,66.3527917 C12.8727615,66.8555866 12.7582344,67.7854167 13.2610292,68.4296689 L18.5383036,75.1904692 C18.8187027,75.5497352 19.2491413,75.7598496 19.7048823,75.7597016 C20.1607714,75.7597016 20.591062,75.5495872 20.8713131,75.1901732 L34.9941073,57.0882269 C34.9989902,57.0820123 35.0037252,57.0757976 35.0086081,57.069435 C37.8367182,53.5788728 39.3937842,49.1820073 39.3937842,44.6824521 C39.3940801,33.8257529 30.5615815,24.9932543 19.7048823,24.9932543 Z" id="Shape"></path>
                <path d="M12.1388408,62.1997773 C11.8636206,61.924557 11.4818634,61.7662314 11.0927079,61.7662314 C10.7035524,61.7662314 10.3217953,61.924557 10.046575,62.1997773 C9.77135477,62.4749975 9.61302914,62.8567547 9.61302914,63.2459102 C9.61302914,63.6350657 9.77135477,64.0168228 10.046575,64.2920431 C10.3217953,64.5672633 10.7035524,64.725589 11.0927079,64.725589 C11.4818634,64.725589 11.8636206,64.5672633 12.1388408,64.2920431 C12.4140611,64.0168228 12.5723867,63.6350657 12.5723867,63.2459102 C12.5723867,62.8567547 12.4140611,62.4749975 12.1388408,62.1997773 Z" id="Shape"></path>
                <path d="M19.7048823,32.839547 C13.0145147,32.839547 7.57151633,38.2825454 7.57151633,44.972913 C7.57151633,51.6632806 13.0146627,57.106279 19.7048823,57.106279 C26.39525,57.106279 31.8382484,51.6632806 31.8382484,44.972913 C31.8382484,38.2825454 26.39525,32.839547 19.7048823,32.839547 Z M19.7048823,54.1469214 C14.6463045,54.1469214 10.5308739,50.0314909 10.5308739,44.972913 C10.5308739,39.9143351 14.6463045,35.7989046 19.7048823,35.7989046 C24.7634602,35.7989046 28.8788908,39.9143351 28.8788908,44.972913 C28.8788908,50.0314909 24.7634602,54.1469214 19.7048823,54.1469214 Z" id="Shape"></path>
                <path d="M60.3926456,0 C51.9278472,0 45.0411262,6.88672099 45.0411262,15.3515194 C45.0411262,18.8579142 46.253723,22.2842584 48.4566687,25.0050917 C48.46022,25.0096787 48.4637712,25.0142657 48.4673224,25.0188528 L59.2259189,38.8087192 C59.506318,39.1679852 59.9366086,39.3780996 60.3923497,39.3782475 C60.3923497,39.3782475 60.3923497,39.3782475 60.3924976,39.3782475 C60.8482387,39.3782475 61.2785293,39.1682811 61.5589284,38.8090151 L72.266328,25.091357 C72.2873394,25.0644269 72.3071671,25.0370528 72.326107,25.0090869 C74.5311243,22.2864779 75.744017,18.8629451 75.744017,15.3515194 C75.744017,6.88672099 68.857444,0 60.3926456,0 Z M69.9512226,23.2385032 C69.9133428,23.2843733 69.8785703,23.3321669 69.8469052,23.3814402 L60.3927936,35.4934989 L50.8297776,23.2361358 C50.8143889,23.2149763 50.7984084,23.1942608 50.781836,23.1739892 C48.9881693,20.973411 48.0004838,18.195314 48.0004838,15.3516674 C48.0004838,8.51865872 53.559489,2.95950553 60.3926456,2.95950553 C67.2258022,2.95950553 72.7848074,8.51851075 72.7848074,15.3516674 C72.7846595,18.2257954 71.7783299,21.0268274 69.9512226,23.2385032 Z" id="Shape"></path>
                <path d="M48.0235667,39.6793622 C47.381978,39.173312 46.451408,39.2832521 45.9455059,39.9249888 C45.5090006,40.4783887 45.1361216,41.0815058 44.8369305,41.7177676 C44.489206,42.4573111 44.806893,43.3387558 45.5464365,43.6864803 C45.7498923,43.7820675 45.9641498,43.8274937 46.175004,43.8274937 C46.7306234,43.8274937 47.2630119,43.5130619 47.5151491,42.9769743 C47.718457,42.5444642 47.9722219,42.1341493 48.2691934,41.757571 C48.7752436,41.1158343 48.6653034,40.1854123 48.0235667,39.6793622 Z" id="Shape"></path>
                <path d="M34.4997466,72.8001961 L32.724132,72.8001961 C31.9069055,72.8001961 31.2444533,73.4626483 31.2444533,74.2798749 C31.2444533,75.0971015 31.9069055,75.7595536 32.724132,75.7595536 L34.4997466,75.7595536 C35.3169732,75.7595536 35.9794254,75.0971015 35.9794254,74.2798749 C35.9794254,73.4626483 35.3169732,72.8001961 34.4997466,72.8001961 Z" id="Shape"></path>
                <path d="M26.2135454,72.8001961 L25.1703719,72.8001961 C24.3531453,72.8001961 23.6906931,73.4626483 23.6906931,74.2798749 C23.6906931,75.0971015 24.3531453,75.7595536 25.1703719,75.7595536 L26.2135454,75.7595536 C27.030772,75.7595536 27.6932242,75.0971015 27.6932242,74.2798749 C27.6932242,73.4626483 27.030772,72.8001961 26.2135454,72.8001961 Z" id="Shape"></path>
                <path d="M45.4419712,47.2692265 C44.6247446,47.2692265 43.9622924,47.9316787 43.9622924,48.7489053 L43.9622924,50.5245198 C43.9622924,51.3417464 44.6247446,52.0041986 45.4419712,52.0041986 C46.2591978,52.0041986 46.92165,51.3417464 46.92165,50.5245198 L46.92165,48.7489053 C46.92165,47.9316787 46.2591978,47.2692265 45.4419712,47.2692265 Z" id="Shape"></path>
                <path d="M54.4739305,36.400098 L53.2102848,36.400098 C53.0075688,36.400098 52.8030772,36.4067566 52.6022848,36.4199257 C51.7868338,36.4731942 51.1689199,37.1775213 51.2223363,37.9929722 C51.2735332,38.7755744 51.924148,39.3763239 52.6974281,39.376176 C52.7298331,39.376176 52.762534,39.3751402 52.7953828,39.3729207 C52.9321052,39.3640426 53.0716389,39.3594556 53.2102848,39.3594556 L54.4739305,39.3594556 C55.2911571,39.3594556 55.9536092,38.6970034 55.9536092,37.8797768 C55.9536092,37.0625502 55.2910091,36.400098 54.4739305,36.400098 Z" id="Shape"></path>
                <path d="M43.5931125,71.7542111 C43.0931291,71.1078875 42.1637428,70.9893652 41.5174191,71.4893486 C41.1380295,71.7829169 40.7254951,72.0325387 40.2915053,72.2315555 C39.5485586,72.5720296 39.2224373,73.450219 39.5629114,74.1931657 C39.8119414,74.7363558 40.348177,75.0567062 40.9089752,75.0567062 C41.1152424,75.0567062 41.324765,75.0133516 41.5245216,74.9217595 C42.1635949,74.6289311 42.7704111,74.2615268 43.32825,73.8299045 C43.9745737,73.3299211 44.093096,72.4005348 43.5931125,71.7542111 Z" id="Shape"></path>
                <path d="M45.4419712,63.8416289 C44.6247446,63.8416289 43.9622924,64.5040811 43.9622924,65.3213076 L43.9622924,66.5115613 C43.9622924,66.6697389 43.9563737,66.8295442 43.9446842,66.9865381 C43.8843133,67.8015452 44.4960125,68.5111992 45.3108716,68.5715701 C45.3481595,68.5743814 45.3851515,68.5757132 45.4218475,68.5757132 C46.1893569,68.5757132 46.8381961,67.9831018 46.8959035,67.2053826 C46.9129199,66.9757365 46.921502,66.7423911 46.921502,66.5115613 L46.921502,65.3213076 C46.92165,64.5040811 46.2591978,63.8416289 45.4419712,63.8416289 Z" id="Shape"></path>
                <path d="M45.4419712,55.5554277 C44.6247446,55.5554277 43.9622924,56.2178799 43.9622924,57.0351065 L43.9622924,58.810721 C43.9622924,59.6279476 44.6247446,60.2903998 45.4419712,60.2903998 C46.2591978,60.2903998 46.92165,59.6279476 46.92165,58.810721 L46.92165,57.0351065 C46.92165,56.2178799 46.2591978,55.5554277 45.4419712,55.5554277 Z" id="Shape"></path>
                <path d="M60.3926456,7.95312549 C56.3131712,7.95312549 52.9942517,11.272045 52.9942517,15.3515194 C52.9942517,19.4309938 56.3131712,22.7499133 60.3926456,22.7499133 C64.47212,22.7499133 67.7910395,19.4309938 67.7910395,15.3515194 C67.7910395,11.272045 64.47212,7.95312549 60.3926456,7.95312549 Z M60.3926456,19.7905557 C57.9449609,19.7905557 55.9536092,17.799204 55.9536092,15.3515194 C55.9536092,12.9038348 57.9449609,10.9124831 60.3926456,10.9124831 C62.8403302,10.9124831 64.8316819,12.9038348 64.8316819,15.3515194 C64.8316819,17.799204 62.8403302,19.7905557 60.3926456,19.7905557 Z" id="Shape"></path>
                <path d="M68.0986647,36.400098 L66.3230502,36.400098 C65.5058236,36.400098 64.8433714,37.0625502 64.8433714,37.8797768 C64.8433714,38.6970034 65.5058236,39.3594556 66.3230502,39.3594556 L68.0986647,39.3594556 C68.9158913,39.3594556 69.5783435,38.6970034 69.5783435,37.8797768 C69.5783435,37.0625502 68.9158913,36.400098 68.0986647,36.400098 Z" id="Shape"></path>
                <path d="M14.2577408,72.7677911 L12.4821263,72.7677911 C11.6648997,72.7677911 11.0024475,73.4302433 11.0024475,74.2474699 C11.0024475,75.0646965 11.6648997,75.7271487 12.4821263,75.7271487 L14.2577408,75.7271487 C15.0749674,75.7271487 15.7374196,75.0646965 15.7374196,74.2474699 C15.7374196,73.4302433 15.0749674,72.7677911 14.2577408,72.7677911 Z" id="Shape"></path>
            </g>
        </g>
    </g>
</svg>