<?xml version="1.0" encoding="UTF-8"?>
<svg width="30px" height="31px" viewBox="0 0 30 31" version="1.1" xmlns="http://www.w3.org/2000/svg" xmlns:xlink="http://www.w3.org/1999/xlink">
    <!-- Generator: Sketch 45.2 (43514) - http://www.bohemiancoding.com/sketch -->
    <title>map-icon</title>
    <desc>Created with Sketch.</desc>
    <defs></defs>
    <g id="Page-1" stroke="none" stroke-width="1" fill="none" fill-rule="evenodd">
        <g id="Mobile-Copy-2" transform="translate(-163.000000, -467.000000)" fill-rule="nonzero" fill="#1F4DCE">
            <g id="map-icon" transform="translate(163.000000, 467.000000)">
                <path d="M7.59529842,10.0209182 C3.41055534,10.0209182 0.0061027028,13.5622636 0.0061027028,17.9151426 C0.0061027028,19.7234879 0.607418549,21.4865668 1.70065787,22.8876325 C1.70915602,22.901159 1.71828156,22.9143889 1.72797744,22.9273222 L2.45733598,23.8992759 C2.65119661,24.1575856 3.00960207,24.2035046 3.2578737,24.0018523 C3.50614534,23.8001999 3.55034716,23.4273892 3.35648654,23.1691389 L2.66608264,22.2490963 C2.6526795,22.22673 2.63779347,22.2050757 2.62136751,22.1844299 C1.67048656,20.9872117 1.14679481,19.4710517 1.14679481,17.9152019 C1.14679481,14.2165808 4.03959001,11.2075169 7.59529842,11.2075169 C11.1510068,11.2075169 14.043802,14.2165808 14.043802,17.9152019 C14.043802,19.4544995 13.5297491,20.9582601 12.5963778,22.1494863 C12.5894196,22.1583854 12.5827465,22.1674031 12.5763016,22.1766581 L7.59512732,28.8178969 L6.01070598,26.7064501 C5.81690239,26.4481405 5.45849693,26.4021621 5.21016825,26.6038144 C4.96183958,26.8054075 4.9176948,27.1782182 5.11149839,27.4365278 L7.14563759,30.1472363 C7.25371817,30.2912822 7.41963184,30.3755265 7.59529842,30.3754671 C7.77102204,30.3754671 7.93687868,30.2912228 8.04490222,30.1471176 L13.4885701,22.8892343 C13.4904523,22.8867426 13.4922774,22.8842508 13.4941595,22.8816998 C14.584262,21.4821766 15.1844371,19.7192757 15.1844371,17.9152019 C15.1845512,13.5622636 11.7800415,10.0209182 7.59529842,10.0209182 Z" id="Shape"></path>
                <path d="M4.67894794,24.9386844 C4.57286357,24.8283363 4.42571429,24.7648564 4.27571328,24.7648564 C4.12571226,24.7648564 3.97856298,24.8283363 3.87247861,24.9386844 C3.76639425,25.0490326 3.70536722,25.2020962 3.70536722,25.3581261 C3.70536722,25.514156 3.76639425,25.6672196 3.87247861,25.7775678 C3.97856298,25.8879159 4.12571226,25.9513958 4.27571328,25.9513958 C4.42571429,25.9513958 4.57286357,25.8879159 4.67894794,25.7775678 C4.7850323,25.6672196 4.84605933,25.514156 4.84605933,25.3581261 C4.84605933,25.2020962 4.7850323,25.0490326 4.67894794,24.9386844 Z" id="Shape"></path>
                <path d="M7.59529842,13.1668494 C5.01647873,13.1668494 2.91846077,15.3491919 2.91846077,18.0316608 C2.91846077,20.7141297 5.01653577,22.8964722 7.59529842,22.8964722 C10.1741181,22.8964722 12.2721361,20.7141297 12.2721361,18.0316608 C12.2721361,15.3491919 10.1741181,13.1668494 7.59529842,13.1668494 Z M7.59529842,21.7099328 C5.64545636,21.7099328 4.05915288,20.0598719 4.05915288,18.0316608 C4.05915288,16.0034497 5.64545636,14.3533887 7.59529842,14.3533887 C9.54514048,14.3533887 11.131444,16.0034497 11.131444,18.0316608 C11.131444,20.0598719 9.54514048,21.7099328 7.59529842,21.7099328 Z" id="Shape"></path>
                <path d="M23.2785032,0 C20.0157245,0 17.3612199,2.76119576 17.3612199,6.15511364 C17.3612199,7.56098481 17.8286185,8.93476009 18.6777497,10.0256644 C18.6791185,10.0275035 18.6804873,10.0293427 18.6818562,10.0311818 L22.8287853,15.5601586 C22.9368659,15.7042045 23.1027225,15.7884488 23.2783891,15.7885081 C23.2783891,15.7885081 23.2783891,15.7885081 23.2784461,15.7885081 C23.4541127,15.7885081 23.6199693,15.7043231 23.7280499,15.5602773 L27.8552451,10.060252 C27.863344,10.0494545 27.8709866,10.038479 27.8782871,10.0272662 C28.7282168,8.93565 29.1957294,7.56300193 29.1957294,6.15511364 C29.1957294,2.76119576 26.5412818,0 23.2785032,0 Z M26.9628816,9.31735971 C26.9482808,9.33575107 26.9348777,9.35491368 26.9226722,9.37466956 L23.2785602,14.2309379 L19.5924707,9.31641048 C19.5865391,9.30792672 19.5803793,9.29962095 19.5739915,9.29149315 C18.882618,8.40918248 18.501912,7.29531865 18.501912,6.15517297 C18.501912,3.4155129 20.6446451,1.18659869 23.2785032,1.18659869 C25.9123612,1.18659869 28.0550943,3.41545357 28.0550943,6.15517297 C28.0550373,7.30754 27.667145,8.43059951 26.9628816,9.31735971 Z" id="Shape"></path>
                <path d="M18.5108094,15.9092385 C18.2635073,15.7063403 17.9048167,15.7504202 17.7098154,16.0077213 C17.5415633,16.2296041 17.3978361,16.4714208 17.2825121,16.7265268 C17.1484808,17.023043 17.2709341,17.3764537 17.555993,17.5158721 C17.6344156,17.5541973 17.7170017,17.5724107 17.798276,17.5724107 C18.012441,17.5724107 18.2176515,17.4463409 18.3148385,17.2313993 C18.393204,17.0579866 18.4910184,16.8934729 18.6054868,16.7424858 C18.8005452,16.4851847 18.7581685,16.1121367 18.5108094,15.9092385 Z" id="Shape"></path>
                <path d="M13.2980175,29.1888684 L12.6136023,29.1888684 C12.2986001,29.1888684 12.0432562,29.4544753 12.0432562,29.7821381 C12.0432562,30.109801 12.2986001,30.3754078 12.6136023,30.3754078 L13.2980175,30.3754078 C13.6130197,30.3754078 13.8683636,30.109801 13.8683636,29.7821381 C13.8683636,29.4544753 13.6130197,29.1888684 13.2980175,29.1888684 Z" id="Shape"></path>
                <path d="M10.1040796,29.1888684 L9.70198565,29.1888684 C9.38698352,29.1888684 9.13163959,29.4544753 9.13163959,29.7821381 C9.13163959,30.109801 9.38698352,30.3754078 9.70198565,30.3754078 L10.1040796,30.3754078 C10.4190817,30.3754078 10.6744257,30.109801 10.6744257,29.7821381 C10.6744257,29.4544753 10.4190817,29.1888684 10.1040796,29.1888684 Z" id="Shape"></path>
                <path d="M17.5157266,18.952356 C17.2007245,18.952356 16.9453806,19.2179628 16.9453806,19.5456257 L16.9453806,20.2575493 C16.9453806,20.5852122 17.2007245,20.850819 17.5157266,20.850819 C17.8307287,20.850819 18.0860727,20.5852122 18.0860727,20.2575493 L18.0860727,19.5456257 C18.0860727,19.2179628 17.8307287,18.952356 17.5157266,18.952356 Z" id="Shape"></path>
                <path d="M20.9971189,14.5944342 L20.5100434,14.5944342 C20.431906,14.5944342 20.3530842,14.5971039 20.2756882,14.602384 C19.9613705,14.6237417 19.723194,14.9061381 19.7437835,15.233089 C19.7635175,15.5468694 20.0142986,15.7877369 20.3123615,15.7876775 C20.324852,15.7876775 20.3374567,15.7872622 20.3501184,15.7863723 C20.4028183,15.7828127 20.456602,15.7809736 20.5100434,15.7809736 L20.9971189,15.7809736 C21.3121211,15.7809736 21.567465,15.5153668 21.567465,15.1877039 C21.567465,14.8600411 21.312064,14.5944342 20.9971189,14.5944342 Z" id="Shape"></path>
                <path d="M16.8030792,28.7694861 C16.6103593,28.5103459 16.2521249,28.462825 16.0029978,28.6632908 C15.856761,28.7809955 15.6977486,28.8810801 15.5304661,28.9608749 C15.2440953,29.0973863 15.118391,29.4494918 15.2496277,29.7473725 C15.3456169,29.9651618 15.5523103,30.0936047 15.7684715,30.0936047 C15.8479777,30.0936047 15.9287387,30.0762219 16.0057354,30.0394985 C16.2520679,29.9220904 16.4859668,29.7747816 16.7009873,29.6017248 C16.9501144,29.401259 16.9957991,29.0286263 16.8030792,28.7694861 Z" id="Shape"></path>
                <path d="M17.5157266,25.5969765 C17.2007245,25.5969765 16.9453806,25.8625833 16.9453806,26.1902462 L16.9453806,26.6674723 C16.9453806,26.7308928 16.9430992,26.7949659 16.9385934,26.8579119 C16.9153233,27.1846848 17.1511044,27.4692169 17.465194,27.4934223 C17.4795667,27.4945496 17.4938253,27.4950835 17.5079699,27.4950835 C17.8038084,27.4950835 18.0539051,27.257479 18.0761486,26.9456564 C18.0827076,26.853581 18.0860156,26.7600224 18.0860156,26.6674723 L18.0860156,26.1902462 C18.0860727,25.8625833 17.8307287,25.5969765 17.5157266,25.5969765 Z" id="Shape"></path>
                <path d="M17.5157266,22.2746662 C17.2007245,22.2746662 16.9453806,22.5402731 16.9453806,22.8679359 L16.9453806,23.5798595 C16.9453806,23.9075224 17.2007245,24.1731292 17.5157266,24.1731292 C17.8307287,24.1731292 18.0860727,23.9075224 18.0860727,23.5798595 L18.0860727,22.8679359 C18.0860727,22.5402731 17.8307287,22.2746662 17.5157266,22.2746662 Z" id="Shape"></path>
                <path d="M23.2785032,3.18876522 C21.7060591,3.18876522 20.4267729,4.51946912 20.4267729,6.15511364 C20.4267729,7.79075816 21.7060591,9.12146206 23.2785032,9.12146206 C24.8509472,9.12146206 26.1302334,7.79075816 26.1302334,6.15511364 C26.1302334,4.51946912 24.8509472,3.18876522 23.2785032,3.18876522 Z M23.2785032,7.93492269 C22.3350367,7.93492269 21.567465,7.13650035 21.567465,6.15511364 C21.567465,5.17372693 22.3350367,4.37530459 23.2785032,4.37530459 C24.2219696,4.37530459 24.9895413,5.17372693 24.9895413,6.15511364 C24.9895413,7.13650035 24.2219696,7.93492269 23.2785032,7.93492269 Z" id="Shape"></path>
                <path d="M26.2488084,14.5944342 L25.5643931,14.5944342 C25.249391,14.5944342 24.9940471,14.8600411 24.9940471,15.1877039 C24.9940471,15.5153668 25.249391,15.7809736 25.5643931,15.7809736 L26.2488084,15.7809736 C26.5638105,15.7809736 26.8191544,15.5153668 26.8191544,15.1877039 C26.8191544,14.8600411 26.5638105,14.5944342 26.2488084,14.5944342 Z" id="Shape"></path>
                <path d="M5.49568349,29.1758758 L4.81126822,29.1758758 C4.4962661,29.1758758 4.24092217,29.4414827 4.24092217,29.7691455 C4.24092217,30.0968084 4.4962661,30.3624152 4.81126822,30.3624152 L5.49568349,30.3624152 C5.81068561,30.3624152 6.06602954,30.0968084 6.06602954,29.7691455 C6.06602954,29.4414827 5.81068561,29.1758758 5.49568349,29.1758758 Z" id="Shape"></path>
            </g>
        </g>
    </g>
</svg>