<?xml version="1.0" encoding="UTF-8"?>
<svg width="218px" height="193px" viewBox="0 0 218 193" version="1.1" xmlns="http://www.w3.org/2000/svg" xmlns:xlink="http://www.w3.org/1999/xlink">
    <!-- Generator: Sketch 45.2 (43514) - http://www.bohemiancoding.com/sketch -->
    <title>Group 2</title>
    <desc>Created with Sketch.</desc>
    <defs></defs>
    <g id="Page-1" stroke="none" stroke-width="1" fill="none" fill-rule="evenodd">
        <g id="Mobile" transform="translate(-70.000000, -137.000000)" fill-rule="nonzero">
            <g id="Group-2" transform="translate(71.000000, 138.000000)">
                <g id="rub-el-hizb" stroke="#EAAC45" stroke-width="2" fill="#EAAC45">
                    <path d="M145.187936,71.6458782 L145.187936,43.8556764 C145.187936,40.8089114 142.821369,38.3304467 139.912619,38.3304467 L113.381285,38.3304467 L94.6207306,18.6797347 C93.6244193,17.63615 92.2998759,17.0615701 90.8906517,17.0615701 C89.4818022,17.0615701 88.1572589,17.63615 87.1605728,18.6797347 L68.4003927,38.3304467 L41.8690588,38.3304467 C38.9603092,38.3304467 36.5937418,40.8089114 36.5937418,43.8556764 L36.5937418,71.6458782 L17.833187,91.2965902 C16.8368756,92.3401749 16.2879489,93.7279581 16.2879489,95.2036552 C16.2879489,96.6793523 16.8368756,98.0671355 17.833187,99.1107202 L36.5937418,118.76104 L36.5937418,146.551242 C36.5937418,149.598007 38.9599345,152.076864 41.8690588,152.076864 L68.4003927,152.076864 L87.1609475,171.727576 C88.1572589,172.77116 89.4818022,173.34574 90.8910264,173.34574 C92.2998759,173.34574 93.6244193,172.77116 94.6211053,171.727576 L113.381285,152.076864 L139.912619,152.076864 C142.821369,152.076864 145.187936,149.598007 145.187936,146.551242 L145.187936,118.76104 L163.948491,99.1107202 C166.004812,96.956438 166.004812,93.4512649 163.948491,91.2965902 L145.187936,71.6458782 Z M161.696205,96.7515673 L142.469157,116.890515 C142.170525,117.203316 142.002663,117.627579 142.002663,118.069895 L142.002663,121.95459 L134.883102,121.95459 C134.003695,121.95459 133.290652,122.701465 133.290652,123.622598 C133.290652,124.543731 134.003695,125.290607 134.883102,125.290607 L142.002663,125.290607 L142.002663,131.961857 L111.278503,131.961857 C110.399096,131.961857 109.686053,132.708732 109.686053,133.629865 C109.686053,134.550999 110.399096,135.297874 111.278503,135.297874 L142.002663,135.297874 L142.002663,146.550849 C142.002663,147.758095 141.064803,148.740454 139.912245,148.740454 L112.721449,148.740454 C112.298794,148.740454 111.894125,148.916282 111.595494,149.229082 L92.3688196,169.368423 C91.9738921,169.782089 91.4489458,170.009723 90.8906517,170.009723 C90.3323576,170.009723 89.8074113,169.782089 89.4128585,169.368423 L70.1861844,149.229082 C69.8875533,148.916282 69.4825091,148.740454 69.0602289,148.740454 L41.8694335,148.740454 C40.7168747,148.740454 39.7790156,147.758095 39.7790156,146.550849 L39.7790156,137.65271 L54.5157313,137.65271 C55.3951381,137.65271 56.1081808,136.905834 56.1081808,135.984701 C56.1081808,135.063568 55.3951381,134.316692 54.5157313,134.316692 L39.7790156,134.316692 L39.7790156,118.069503 C39.7790156,117.627186 39.6111527,117.202923 39.3125215,116.890123 L20.0854728,96.7511748 C19.69092,96.3379011 19.4732227,95.788047 19.4732227,95.2032628 C19.4732227,94.6184785 19.6905453,94.0686244 20.0854728,93.6549582 L23.0418086,90.5583492 L43.8369518,90.5583492 C44.7163586,90.5583492 45.4294014,89.8114738 45.4294014,88.8903405 C45.4294014,87.9692073 44.7163586,87.2223319 43.8369518,87.2223319 L26.2270824,87.2223319 L39.3125215,73.5160103 C39.6111527,73.2032096 39.7790156,72.7789467 39.7790156,72.33663 L39.7790156,65.2454346 L80.9301607,65.2454346 C81.8095675,65.2454346 82.5226102,64.4985592 82.5226102,63.5774259 C82.5226102,62.6562927 81.8095675,61.9094173 80.9301607,61.9094173 L39.7790156,61.9094173 L39.7790156,52.8833318 L56.7638954,52.8833318 C57.6433022,52.8833318 58.3563449,52.1364564 58.3563449,51.2153231 C58.3563449,50.2941898 57.6433022,49.5473144 56.7638954,49.5473144 L39.7790156,49.5473144 L39.7790156,43.8556764 C39.7790156,42.6484306 40.7165,41.6664641 41.8694335,41.6664641 L69.0602289,41.6664641 C69.4825091,41.6664641 69.8875533,41.4906363 70.1861844,41.1778356 L89.4128585,21.0388877 C89.807786,20.6252215 90.3327323,20.3975874 90.8910264,20.3975874 C91.4493205,20.3975874 91.9742668,20.6252215 92.3688196,21.0388877 L111.595868,41.1778356 C111.8945,41.4906363 112.299544,41.6664641 112.721824,41.6664641 L139.912619,41.6664641 C141.065178,41.6664641 142.003037,42.6484306 142.003037,43.8556764 L142.003037,56.0227203 L132.073271,56.0227203 C131.193864,56.0227203 130.480822,56.7695957 130.480822,57.690729 C130.480822,58.6118622 131.193864,59.3587377 132.073271,59.3587377 L142.003037,59.3587377 L142.003037,72.33663 C142.003037,72.7789467 142.1709,73.2032096 142.469531,73.5160103 L161.69658,93.6549582 C162.511165,94.5089787 162.511165,95.8979393 161.696205,96.7515673 Z" id="Shape"></path>
                    <path d="M179.996261,90.6878652 L156.946209,66.5441265 L156.946209,32.3997928 C156.946209,28.8785284 154.211318,26.0138707 150.849563,26.0138707 L118.251933,26.0138707 L95.2018811,1.87052454 C94.0504463,0.664456159 92.5194466,0 90.8910264,0 C89.2626062,0 87.7316065,0.664456159 86.5801717,1.87052454 L63.5301199,26.0142632 L30.9324899,26.0142632 C27.5707351,26.0142632 24.8358435,28.8789209 24.8358435,32.4001853 L24.8358435,66.5449115 L1.78579168,90.6878652 C-0.591267158,93.1777115 -0.591267158,97.228814 1.78579168,99.7190528 L24.8358435,123.862791 L24.8358435,158.007125 C24.8358435,161.52839 27.5707351,164.39344 30.9324899,164.39344 L63.5301199,164.39344 L86.5801717,188.537178 C87.7316065,189.743247 89.2626062,190.407703 90.8910264,190.407703 C92.5194466,190.407703 94.0504463,189.743247 95.2018811,188.537178 L118.251933,164.39344 L150.849563,164.39344 C154.211318,164.39344 156.946209,161.528782 156.946209,158.007125 L156.946209,123.862791 L179.996261,99.7190528 C182.37332,97.2292065 182.37332,93.178104 179.996261,90.6878652 Z M177.743975,97.3598998 L154.22743,121.992267 C153.928798,122.305068 153.760935,122.729331 153.760935,123.171647 L153.760935,158.006733 C153.760935,159.688478 152.454752,161.05703 150.849188,161.05703 L117.592097,161.05703 C117.169817,161.05703 116.764772,161.232858 116.466141,161.545658 L92.9495953,186.178025 C92.3999192,186.754175 91.6685165,187.071293 90.8906517,187.071293 C90.1127869,187.071293 89.3817589,186.753783 88.8317081,186.178025 L65.3151622,161.545658 C65.0165311,161.232858 64.6114868,161.05703 64.1892067,161.05703 L30.9324899,161.05703 C29.326926,161.05703 28.0207426,159.68887 28.0207426,158.006733 L28.0207426,123.171647 C28.0207426,122.729331 27.8528797,122.305068 27.5542486,121.992267 L4.03770272,97.3598998 C2.90237985,96.1707078 2.90237985,94.2358177 4.03770272,93.0470181 L27.5542486,68.4146511 C27.8528797,68.1018504 28.0207426,67.6775875 28.0207426,67.2352708 L28.0207426,32.3997928 C28.0207426,30.7180476 29.326926,29.3498881 30.9324899,29.3498881 L64.1895814,29.3498881 C64.6118615,29.3498881 65.0169058,29.1740603 65.3155369,28.8612596 L88.8320828,4.22889257 C89.3817589,3.65274275 90.1131616,3.33562486 90.8910264,3.33562486 C91.6688912,3.33562486 92.3999192,3.65313522 92.94997,4.22889257 L116.466516,28.8612596 C116.765147,29.1740603 117.170191,29.3498881 117.592471,29.3498881 L150.849563,29.3498881 C152.455127,29.3498881 153.76131,30.7180476 153.76131,32.3997928 L153.76131,67.2352708 C153.76131,67.6775875 153.929173,68.1018504 154.227804,68.4146511 L177.74435,93.0470181 C178.879298,94.2362102 178.879298,96.1711003 177.743975,97.3598998 Z" id="Shape"></path>
                </g>
                <g id="handshake" transform="translate(30.000000, 49.000000)">
                    <path d="M148.46008,86.4670397 L103.409162,8.914899 C94.2629938,4.56202533 84.0484792,3.30597034 74.1885011,5.32115429 L44.4092539,11.4079258 L26.9637243,11.4079258 L26.9637243,75.8037396 C30.7685244,75.8037396 34.4654696,77.1281124 37.4737468,79.5684696 L39.750724,81.4161032 L98.9215238,109.872943 C102.257738,113.268986 107.590361,113.189218 110.832567,109.694706 C114.074772,106.200194 113.998618,100.614547 110.662404,97.218504 L91.7502662,77.967009 L100.954734,87.3250195 L119.866872,106.576514 C123.203086,109.972557 128.535709,109.89279 131.777551,106.398278 C135.019756,102.903765 134.943602,97.3181182 131.607388,93.9224569 L112.69525,74.6709619 L124.637994,86.8238951 L136.718835,99.1218605 C140.05505,102.517903 145.387673,102.438136 148.629514,98.9436236 L148.629514,98.9436236 C151.872448,95.4487298 151.796294,89.8630826 148.46008,86.4670397 Z" id="Shape" fill="#FFFFFF"></path>
                    <path d="M159.596098,70.52495 L143.423693,79.5551114 L108.850733,46.3885422 L95.5623538,45.1580587 L65.8180866,62.7603851 C62.1430039,64.9354861 57.5289276,64.2343701 54.5949829,61.0554937 L54.5949829,61.0554937 C51.0663788,57.2323692 51.1312375,51.1471243 54.740004,47.4072024 L82.3279021,18.8156351 C88.1987065,12.7311536 96.1242196,9.31869911 104.382771,9.31869911 L159.596098,9.31869911 L159.596098,70.52495 Z" id="Shape" fill="#FFFFFF"></path>
                    <path d="M159.596098,80.193253 L159.596098,7.83479093 C159.596098,5.72686272 161.227403,4.01815466 163.239844,4.01815466 L182.916076,4.01815466 L182.916076,84.0102709 L163.239844,84.0102709 C161.227403,84.0098892 159.596098,82.3011812 159.596098,80.193253 Z" id="Shape" fill="#FFFFFF"></path>
                    <path d="M26.9637243,80.193253 L26.9637243,7.83479093 C26.9637243,5.72686272 25.332419,4.01815466 23.3199778,4.01815466 L3.64374652,4.01815466 L3.64374652,84.0102709 L23.3199778,84.0102709 C25.332419,84.0098892 26.9637243,82.3011812 26.9637243,80.193253 Z" id="Shape" fill="#FFFFFF"></path>
                    <g id="Group" transform="translate(40.445586, 70.226107)" fill="#FFFFFF">
                        <path d="M2.95580718,18.8148718 L2.95580718,18.8148718 C-0.431419588,15.8920918 -0.915673502,10.6465069 1.87470759,7.09818013 L4.83780226,3.33039681 C7.62818335,-0.217548267 12.6361486,-0.724779227 16.0237397,2.19800083 L16.0237397,2.19800083 C19.4109665,5.12078088 19.8952204,10.3663658 17.1048393,13.9146925 L14.1417446,17.6824758 C11.3509992,21.2304209 6.34303395,21.7372702 2.95580718,18.8148718 Z" id="Shape"></path>
                        <path d="M15.2224799,29.3991675 L15.2224799,29.3991675 C11.8352531,26.4763875 11.3509992,21.2308026 14.1413803,17.6824758 L17.1044749,13.9146925 C19.894856,10.3667474 24.9028212,9.85951647 28.2904124,12.7822965 L28.2904124,12.7822965 C31.6776392,15.7050766 32.1618931,20.9506615 29.371512,24.4989882 L26.4084173,28.2667715 C23.6180362,31.8150983 18.6097066,32.3219476 15.2224799,29.3991675 Z" id="Shape"></path>
                        <path d="M27.4891525,39.9830815 L27.4891525,39.9830815 C24.1019258,37.0603015 23.6176718,31.8147166 26.4080529,28.2663899 L29.3711476,24.4986065 C32.1615287,20.9506615 37.1694939,20.4434305 40.5570851,23.3662106 L40.5570851,23.3662106 C43.9443118,26.2889906 44.4285657,31.5345755 41.6381847,35.0829022 L38.67509,38.8506856 C35.8847089,42.399394 30.8767437,42.9062433 27.4891525,39.9830815 Z" id="Shape"></path>
                        <path d="M39.7558252,50.5677589 L39.7558252,50.5677589 C36.3685984,47.6449789 35.8843445,42.399394 38.6747256,38.8510672 L41.6378203,35.0832839 C44.4282014,31.5353388 49.4361666,31.0281079 52.8237577,33.9508879 L52.8237577,33.9508879 C56.2109845,36.873668 56.6952384,42.1192529 53.9048573,45.6675796 L50.9417627,49.4353629 C48.1513816,52.9836897 43.1434163,53.490539 39.7558252,50.5677589 Z" id="Shape"></path>
                    </g>
                    <path d="M182.916076,0.201136731 L163.239844,0.201136731 C159.998367,0.201136731 157.246974,2.43081564 156.303244,5.50206284 L105.030629,5.50206284 C104.992005,5.48183467 104.955932,5.45893485 104.916216,5.44023334 C95.0223506,0.731649173 84.155241,-0.605318512 73.4907237,1.57550745 L44.057268,7.5916712 L30.5958108,7.5916712 C30.4715591,3.49527549 27.2599609,0.201136731 23.3199778,0.201136731 L3.64374652,0.201136731 C1.63130532,0.201136731 0,1.91022645 0,4.017773 L0,28.5541642 C0,30.6617108 1.63130532,32.3708005 3.64374652,32.3708005 C5.65618773,32.3708005 7.28749305,30.6617108 7.28749305,28.5541642 L7.28749305,7.83440927 L23.3199778,7.83440927 L23.3199778,80.193253 L7.28749305,80.193253 L7.28749305,59.8505816 C7.28749305,57.7430351 5.65618773,56.0339454 3.64374652,56.0339454 C1.63130532,56.0339454 0,57.7430351 0,59.8505816 L0,84.0098892 C0,86.1174358 1.63130532,87.8265255 3.64374652,87.8265255 L23.3199778,87.8265255 C27.3383014,87.8265255 30.6074708,84.4022394 30.6074708,80.193253 L30.6074708,80.15127 C32.2795861,80.6428527 33.8617008,81.4657195 35.2426808,82.5862839 L36.943946,83.9663796 C37.2671463,86.9952621 38.6670737,89.9008673 41.0846996,91.9870407 C43.2396113,93.8461242 45.8485338,94.7514303 48.44361,94.7514303 C48.7045023,94.7514303 48.9650302,94.7388354 49.2251937,94.7205156 C49.5950339,97.807411 51.0496176,100.584777 53.3517366,102.570955 C55.5066483,104.430038 58.1155708,105.335726 60.7110115,105.335344 C60.9719037,105.335344 61.2320672,105.323131 61.4922307,105.304811 C61.862071,108.391707 63.317019,111.169073 65.619138,113.155632 L65.619138,113.155632 C67.7142923,114.962809 70.2878705,115.926892 72.9674817,115.926892 C73.232382,115.926892 73.4987399,115.913915 73.7654621,115.894832 C74.123278,118.859977 75.5148248,121.694211 77.8858107,123.740309 C79.980965,125.547487 82.5545431,126.511569 85.2341543,126.511569 C85.6109177,126.511569 85.9902317,126.492104 86.3702745,126.453938 C89.4517909,126.142119 92.2326983,124.591801 94.2010501,122.088851 L97.1641448,118.321068 C98.0360934,117.212716 98.6865021,115.988721 99.1244805,114.708621 C100.849794,115.673467 102.782802,116.186041 104.78832,116.186041 C104.847349,116.186041 104.906377,116.185278 104.965406,116.184515 C108.1883,116.136425 111.200221,114.776558 113.446591,112.355283 C114.631537,111.078237 115.504579,109.603107 116.071181,108.03447 L117.328638,109.314569 C119.669745,111.697677 122.704257,112.883888 125.736948,112.883888 C128.88478,112.883888 132.030062,111.604551 134.391939,109.059236 C135.733202,107.613876 136.674746,105.915091 137.223494,104.113639 C138.909456,104.989175 140.749183,105.428852 142.589275,105.428852 C145.737108,105.428852 148.88239,104.149897 151.244266,101.604201 C153.490636,99.1829267 154.702546,95.9906921 154.656271,92.6144957 C154.610359,89.2386809 153.312093,86.0838494 151.003779,83.7343281 L148.472104,81.1504653 L155.952351,76.9212507 L155.952351,80.193253 C155.952351,84.4022394 159.221521,87.8265255 163.239844,87.8265255 L182.916076,87.8265255 C184.928517,87.8265255 186.559822,86.1174358 186.559822,84.0098892 L186.559822,58.7055908 C186.559822,56.5980442 184.928517,54.8889545 182.916076,54.8889545 C180.903634,54.8889545 179.272329,56.5980442 179.272329,58.7055908 L179.272329,80.193253 L163.239844,80.193253 L163.239844,70.5463231 C163.239844,70.5360182 163.239844,70.5257133 163.239844,70.5154084 L163.239844,7.83440927 L179.272329,7.83440927 L179.272329,29.1396362 C179.272329,31.2471828 180.903634,32.9562725 182.916076,32.9562725 C184.928517,32.9562725 186.559822,31.2471828 186.559822,29.1396362 L186.559822,4.017773 C186.559822,1.91022645 184.928517,0.201136731 182.916076,0.201136731 Z M45.7180876,86.0949176 C43.8867406,84.5148302 43.6240265,81.6687645 45.1325376,79.7509048 L48.0959966,75.9831215 C48.8265678,75.0537706 49.8592056,74.4782218 51.0029776,74.3625777 C51.1439906,74.3480745 51.2846392,74.3408229 51.4245591,74.3408229 C52.4189375,74.3408229 53.3750566,74.6988234 54.1522677,75.369788 C55.9836147,76.9498755 56.2459645,79.7959411 54.7378178,81.7138008 L51.7747231,85.4815842 C50.2662121,87.3998256 47.5494346,87.6757684 45.7180876,86.0949176 Z M57.9847603,96.6792133 L57.9847603,96.6792133 C57.097508,95.9139777 56.5483954,94.8327247 56.4376255,93.6343009 C56.32722,92.4358771 56.6686391,91.2645514 57.3995746,90.3352005 L60.3630337,86.5670355 C61.0936049,85.6376846 62.1258782,85.0625175 63.2700147,84.9468734 C63.4110276,84.9323702 63.5516763,84.9251186 63.6915961,84.9251186 C64.6859745,84.9251186 65.6420936,85.2831191 66.4193048,85.9540837 C67.3065571,86.7193193 67.8556697,87.800954 67.9664395,88.9993778 C68.0768451,90.1974199 67.735426,91.3687456 67.0044905,92.2984782 L64.0413958,96.0662615 C62.5332491,97.9841213 59.8157429,98.2596824 57.9847603,96.6792133 Z M70.2517974,107.263509 L70.2517974,107.263509 C69.3645451,106.498273 68.8150681,105.416639 68.7042982,104.218215 C68.5938927,103.020173 68.9353117,101.848847 69.6662473,100.919115 L72.629342,97.1513312 C73.4790637,96.0712232 74.7117431,95.5120859 75.9542607,95.5120859 C76.9176673,95.5120859 77.8865395,95.8483316 78.6863418,96.5383794 C80.5176888,98.1184669 80.7804029,100.964151 79.2718919,102.882011 L76.3084328,106.650176 C75.5778617,107.579527 74.5455883,108.154694 73.4014519,108.270338 C72.2562223,108.387508 71.1383209,108.029126 70.2517974,107.263509 Z M91.5382002,113.46707 L88.5747411,117.234853 C87.84417,118.164204 86.8115322,118.739753 85.6677602,118.855397 C84.5225306,118.972949 83.4049936,118.613422 82.5181057,117.847805 C80.6867587,116.267717 80.4240445,113.421652 81.9325556,111.503792 L84.8960146,107.736009 C85.6265858,106.806658 86.6592236,106.231491 87.80336,106.115846 C87.944373,106.101343 88.0850216,106.094092 88.2249415,106.094092 C89.2196843,106.094092 90.175439,106.452092 90.9530145,107.123057 C91.8402668,107.888292 92.3893794,108.969545 92.5001493,110.167969 C92.6105548,111.366393 92.2691357,112.537719 91.5382002,113.46707 Z M146.016948,96.2830465 C144.180135,98.2631174 141.148538,98.3081537 139.258527,96.384569 L127.177685,84.0866036 C127.164203,84.0728637 127.149628,84.0617955 127.136146,84.0480556 L115.234941,71.9332887 C113.792018,70.4638838 111.484797,70.4989968 110.082319,72.0100031 C108.679841,73.5217728 108.712635,75.9380852 110.155923,77.4071085 L129.067696,96.6586035 C130.957708,98.5825698 131.001068,101.758393 129.164256,103.738082 C127.327807,105.718153 124.295846,105.763189 122.405834,103.839605 L103.493697,84.5881096 C103.455802,84.5491799 103.414628,84.5159752 103.375275,84.4793355 L94.2888644,75.2300992 C92.8459408,73.7610759 90.5390849,73.7958072 89.1362425,75.3068135 C87.7337644,76.8185832 87.7665582,79.2348956 89.2098462,80.7039189 L108.121619,99.9554139 C110.011631,101.87938 110.054991,105.055203 108.218179,107.034893 C107.328376,107.994013 106.135413,108.532541 104.859009,108.551624 C103.589527,108.575669 102.375795,108.067674 101.459758,107.135652 L96.1632077,101.744271 C96.0444215,101.623284 95.9176191,101.516418 95.7879018,101.415659 C95.7201281,101.354593 95.6545406,101.291237 95.5849451,101.231315 C93.2121373,99.1844534 90.2880308,98.2967038 87.4393497,98.4978405 C87.0826269,95.5307875 85.6907158,92.6942634 83.3182724,90.6470197 C80.9472865,88.6013027 78.0250018,87.7131714 75.1781427,87.9131631 C74.807938,84.8266494 73.3537188,82.0489015 71.0515997,80.062724 C68.7494807,78.0765465 65.8669128,77.1124642 62.9052756,77.3235241 C62.5474597,74.3583794 61.1559129,71.5241453 58.7849271,69.4780466 C56.3953581,67.4166814 53.3838016,66.4545074 50.3008276,66.7647999 C47.2193112,67.0766191 44.4384039,68.6269367 42.470052,71.1298868 L39.5065929,74.8976701 C39.2577251,75.2140693 39.0274403,75.54001 38.8142811,75.8739657 C36.3547522,74.0912149 33.5421443,72.8828678 30.6063777,72.3317456 L30.6063777,15.2249437 L44.4081608,15.2249437 C44.6424537,15.2249437 44.8760178,15.2012806 45.1063026,15.1539543 L74.8855498,9.06718278 C79.9379688,8.03478267 85.0428576,7.92524521 90.0322397,8.70803731 C86.2624196,10.4839182 82.7873785,12.9696934 79.7645264,16.1027701 L52.1766284,44.6943374 C47.1737644,49.8788561 47.0830351,58.4086565 51.9744004,63.7080559 C54.4729174,66.4159594 57.8473911,67.8334581 61.2634034,67.8330764 C63.4336189,67.8326947 65.6205955,67.260581 67.6097168,66.0835303 L96.5195661,48.9750766 L106.501245,48.9750766 L145.920024,89.2047129 C146.835697,90.1363538 147.34983,91.3859205 147.368049,92.7232698 C147.386996,94.0598558 146.90675,95.3243074 146.016948,96.2830465 Z M143.001383,75.5678715 L116.944223,48.9746949 L119.502862,48.9746949 C121.515303,48.9746949 123.146608,47.2656052 123.146608,45.1580587 C123.146608,43.0505121 121.515303,41.3414224 119.502862,41.3414224 L95.5619895,41.3414224 C94.9338076,41.3414224 94.3165569,41.5112627 93.7696306,41.8352951 L64.0253633,59.4372399 C61.7953904,60.7574144 58.9948069,60.3314778 57.2144723,58.4025498 C55.0836093,56.0938666 55.1233262,52.3783712 57.302651,50.1200675 L84.890549,21.5285002 C90.1131309,16.1157466 97.0358849,13.1353354 104.382771,13.1353354 L155.952351,13.1353354 L155.952351,68.2471814 L143.001383,75.5678715 Z" id="Shape" fill="#1F4DCE"></path>
                    <path d="M182.916076,40.1983398 C181.95777,40.1983398 181.017684,40.6029033 180.339947,41.3166143 C179.66221,42.0265086 179.272329,43.0077658 179.272329,44.0149761 C179.272329,45.0187514 179.66221,46.0034436 180.339947,46.7133379 C181.017684,47.4228506 181.95777,47.8316124 182.916076,47.8316124 C183.874381,47.8316124 184.814467,47.4232323 185.492204,46.7133379 C186.169941,45.999627 186.559822,45.0187514 186.559822,44.0149761 C186.559822,43.0073841 186.169941,42.0265086 185.492204,41.3166143 C184.814467,40.6029033 183.874381,40.1983398 182.916076,40.1983398 Z" id="Shape" fill="#1F4DCE"></path>
                    <path d="M3.64374652,47.8316124 C4.60205186,47.8316124 5.54213846,47.4232323 6.21987532,46.7133379 C6.89761217,45.999627 7.28749305,45.0187514 7.28749305,44.0149761 C7.28749305,43.0073841 6.89761217,42.0265086 6.21987532,41.3166143 C5.54213846,40.6029033 4.60205186,40.1983398 3.64374652,40.1983398 C2.68544119,40.1983398 1.74535459,40.6029033 1.06761773,41.3166143 C0.389880878,42.0265086 0,43.0077658 0,44.0149761 C0,45.0187514 0.389880878,45.999627 1.06761773,46.7133379 C1.74535459,47.423614 2.68544119,47.8316124 3.64374652,47.8316124 Z" id="Shape" fill="#1F4DCE"></path>
                </g>
            </g>
        </g>
    </g>
</svg>