<?xml version="1.0" encoding="UTF-8"?>
<svg width="164px" height="164px" viewBox="0 0 164 164" version="1.1" xmlns="http://www.w3.org/2000/svg" xmlns:xlink="http://www.w3.org/1999/xlink">
    <!-- Generator: Sketch 45.2 (43514) - http://www.bohemiancoding.com/sketch -->
    <title>team</title>
    <desc>Created with Sketch.</desc>
    <defs>
        <linearGradient x1="-9.36419213%" y1="-8.81119348%" x2="104.902359%" y2="100%" id="linearGradient-1">
            <stop stop-color="#EAAC45" offset="0%"></stop>
            <stop stop-color="#EF935F" offset="100%"></stop>
        </linearGradient>
        <rect id="path-2" x="0" y="0" width="132" height="132" rx="15"></rect>
        <filter x="-18.2%" y="-18.2%" width="136.4%" height="136.4%" filterUnits="objectBoundingBox" id="filter-3">
            <feOffset dx="0" dy="0" in="SourceAlpha" result="shadowOffsetOuter1"></feOffset>
            <feGaussianBlur stdDeviation="8" in="shadowOffsetOuter1" result="shadowBlurOuter1"></feGaussianBlur>
            <feColorMatrix values="0 0 0 0 0   0 0 0 0 0   0 0 0 0 0  0 0 0 0.128113678 0" type="matrix" in="shadowBlurOuter1"></feColorMatrix>
        </filter>
    </defs>
    <g id="Page-1" stroke="none" stroke-width="1" fill="none" fill-rule="evenodd">
        <g id="Mobile-Copy-2" transform="translate(-15.000000, -127.000000)">
            <g id="team" transform="translate(31.000000, 143.000000)">
                <g id="Group">
                    <g id="Rectangle-2">
                        <use fill="black" fill-opacity="1" filter="url(#filter-3)" xlink:href="#path-2"></use>
                        <use fill="url(#linearGradient-1)" fill-rule="evenodd" xlink:href="#path-2"></use>
                    </g>
                    <g id="Group-2" transform="translate(28.000000, 96.000000)" font-size="18" font-family="OpenSans, Open Sans" fill="#FFFFFF" font-weight="normal">
                        <text id="My-team">
                            <tspan x="0.897949219" y="19">My team</tspan>
                        </text>
                    </g>
                </g>
                <g id="skills" transform="translate(32.000000, 16.000000)" fill-rule="nonzero" fill="#FFFFFF">
                    <path d="M41.0540981,39.4962065 C40.8681643,39.4409038 40.6726819,39.4285701 40.4818411,39.456553 C40.4595609,39.455492 40.4371481,39.4549615 40.4148678,39.4540332 C42.136413,37.7721415 43.2079857,35.4275458 43.2079857,32.8364087 L43.2079857,19.6278165 C43.2079857,18.8954868 42.6141116,18.3016127 41.8817819,18.3016127 L32.0579271,18.3016127 C27.9974889,18.3016127 24.6940478,21.6050538 24.6940478,25.6654921 L24.6940478,32.8362761 C24.6940478,35.4274131 25.7656204,37.7720089 27.4871656,39.4539006 C27.4648854,39.4548289 27.4424726,39.4553594 27.4201923,39.4564203 C27.2294842,39.4285701 27.0338692,39.4407711 26.8479354,39.4960738 C19.9919921,40.111565 14.6001779,45.8883763 14.6001779,52.9018725 L14.6001779,59.4139312 C14.6001779,60.1462609 15.1940519,60.740135 15.9263817,60.740135 L51.9757844,60.740135 C52.7081142,60.740135 53.3019882,60.1462609 53.3019882,59.4139312 L53.3019882,52.9020052 C53.301723,45.8886415 47.9100414,40.1116977 41.0540981,39.4962065 Z M27.3461902,27.5231057 L27.3461902,25.6654921 L27.3461902,25.6654921 C27.3461902,23.0675914 29.4598938,20.9540204 32.0576619,20.9540204 L40.5553128,20.9540204 L40.5553128,24.5030744 C40.5553128,26.2963672 39.096356,27.755324 37.3030632,27.755324 L27.3461902,27.755324 L27.3461902,27.5231057 L27.3461902,27.5231057 Z M27.3461902,32.8364087 L27.3461902,30.4077317 L37.3030632,30.4077317 C38.504206,30.4077317 39.6219306,30.0463411 40.5553128,29.4279323 L40.5553128,32.8362761 C40.5553128,36.4780318 37.5924409,39.4409038 33.9506852,39.4409038 C30.3089295,39.4409038 27.3461902,36.4781644 27.3461902,32.8364087 Z M37.4729499,42.0933114 L33.9508178,45.6154435 L30.4286857,42.0933114 L37.4729499,42.0933114 Z M50.6493154,58.0877273 L17.2523203,58.0877273 L17.2523203,54.2709127 L28.0746739,54.2709127 C28.8070037,54.2709127 29.4008777,53.6770387 29.4008777,52.9447089 C29.4008777,52.2123792 28.8070037,51.6185051 28.0746739,51.6185051 L17.3312294,51.6185051 C17.9174115,46.6894034 21.8322325,42.7692775 26.7588145,42.1746077 L33.0130591,48.4288523 C33.2720667,48.6877273 33.6114422,48.8172974 33.9508178,48.8172974 C34.2901934,48.8172974 34.6295689,48.6877273 34.8885765,48.4288523 L41.1428211,42.1746077 C46.4904728,42.8200711 50.6493154,47.3831406 50.6493154,52.9020052 L50.6493154,58.0877273 Z" id="Shape"></path>
                    <path d="M34.8883113,52.0070828 C34.64177,51.7604089 34.2996094,51.6185051 33.9508178,51.6185051 C33.6020262,51.6185051 33.2598656,51.7604089 33.0131917,52.0070828 C32.7665178,52.2537567 32.624614,52.5959173 32.624614,52.9447089 C32.624614,53.2935005 32.7663852,53.6356611 33.0131917,53.882335 C33.2598656,54.1288763 33.6020262,54.2709127 33.9508178,54.2709127 C34.2996094,54.2709127 34.64177,54.1290089 34.8883113,53.882335 C35.1349852,53.6356611 35.2770216,53.2935005 35.2770216,52.9447089 C35.2770216,52.5959173 35.1351178,52.2537567 34.8883113,52.0070828 Z" id="Shape"></path>
                    <path d="M33.9676606,0 C31.1888657,0 28.9280861,2.26077965 28.9280861,5.03957452 C28.9280861,7.35937024 30.5041467,9.3169797 32.6414568,9.90077462 L32.6414568,13.1397622 C32.6414568,13.872092 33.2353308,14.465966 33.9676606,14.465966 C34.6999903,14.465966 35.2938644,13.872092 35.2938644,13.1397622 L35.2938644,9.90077462 C37.4311745,9.3169797 39.0072351,7.35937024 39.0072351,5.03957452 C39.0072351,2.26077965 36.7464555,0 33.9676606,0 Z M33.9676606,7.42674139 C32.6514033,7.42674139 31.5804937,6.35583181 31.5804937,5.03957452 C31.5804937,3.72331723 32.6514033,2.65240764 33.9676606,2.65240764 C35.2839179,2.65240764 36.3548275,3.72331723 36.3548275,5.03957452 C36.3548275,6.35583181 35.2839179,7.42674139 33.9676606,7.42674139 Z" id="Shape"></path>
                    <path d="M60.591998,10.3445224 C59.6400489,9.39270594 58.3745852,8.86845757 57.0284883,8.86845757 C55.6823915,8.86845757 54.4169278,9.39270594 53.4649787,10.344655 C51.8247298,11.9850365 51.5549799,14.4836045 52.6533419,16.4077937 L50.3629879,18.6981477 C49.8451054,19.2160303 49.8451054,20.0557825 50.3629879,20.5737977 C50.6221282,20.8325401 50.9615037,20.9621102 51.3008793,20.9621102 C51.6403875,20.9621102 51.9796304,20.8325401 52.238638,20.5736651 L54.527931,18.2843721 C55.2812148,18.7163167 56.1367489,18.9477392 57.0284883,18.9477392 C58.3745852,18.9477392 59.6400489,18.4234909 60.5918654,17.4716744 C61.5439471,16.5198579 62.0681955,15.2542616 62.0681955,13.9081647 C62.0681955,12.5620678 61.5439471,11.2964715 60.591998,10.3445224 Z M58.7166132,15.5962895 C57.7858833,16.5270194 56.2713586,16.5270194 55.3407614,15.5962895 C54.4098989,14.6654271 54.4098989,13.1509023 55.3406287,12.2201725 C55.8059937,11.7546749 56.417241,11.5220588 57.028621,11.5220588 C57.6400009,11.5220588 58.2512483,11.7546749 58.7166132,12.2201725 C59.1675225,12.6710818 59.4159205,13.2705259 59.4159205,13.9082973 C59.4159205,14.5459361 59.1675225,15.1453803 58.7166132,15.5962895 Z" id="Shape"></path>
                    <path d="M62.8620611,31.9393645 C60.5422654,31.9393645 58.5846559,33.5154251 58.000861,35.6527352 L54.7618734,35.6527352 C54.0295436,35.6527352 53.4356696,36.2466092 53.4356696,36.978939 C53.4356696,37.7112687 54.0295436,38.3051428 54.7618734,38.3051428 L58.000861,38.3051428 C58.5846559,40.4424529 60.5422654,42.0185135 62.8620611,42.0185135 C65.640856,42.0185135 67.9016356,39.7577339 67.9016356,36.978939 C67.9016356,34.2001441 65.640856,31.9393645 62.8620611,31.9393645 Z M62.8620611,39.3661059 C61.5458038,39.3661059 60.4748942,38.2951963 60.4748942,36.978939 C60.4748942,35.6626817 61.5458038,34.5917721 62.8620611,34.5917721 C64.1783184,34.5917721 65.249228,35.6626817 65.249228,36.978939 C65.249228,38.2951963 64.1783184,39.3661059 62.8620611,39.3661059 Z" id="Shape"></path>
                    <path d="M50.6701368,36.040915 C50.4235955,35.7942411 50.0814349,35.6523373 49.7326433,35.6523373 C49.3838517,35.6523373 49.0416911,35.7941085 48.7950172,36.040915 C48.5483433,36.2877216 48.4064394,36.6297495 48.4064394,36.9785411 C48.4064394,37.3286589 48.5482106,37.6694933 48.7950172,37.9160346 C49.0416911,38.1641673 49.3838517,38.3047449 49.7326433,38.3047449 C50.0814349,38.3047449 50.4235955,38.1640347 50.6701368,37.9160346 C50.9168107,37.6694933 51.0588471,37.3273327 51.0588471,36.9785411 C51.0588471,36.6297495 50.9169433,36.2889151 50.6701368,36.040915 Z" id="Shape"></path>
                    <path d="M13.1397622,35.6190496 L9.90077462,35.6190496 C9.3169797,33.4817395 7.35937024,31.9056789 5.03957452,31.9056789 C2.26077965,31.9056789 0,34.1664585 0,36.9452534 C0,39.7240483 2.26077965,41.9848279 5.03957452,41.9848279 C7.35937024,41.9848279 9.3169797,40.4087673 9.90077462,38.2714572 L13.1397622,38.2714572 C13.872092,38.2714572 14.465966,37.6775832 14.465966,36.9452534 C14.465966,36.2129237 13.8722246,35.6190496 13.1397622,35.6190496 Z M5.03957452,39.3324203 C3.72331723,39.3324203 2.65240764,38.2615107 2.65240764,36.9452534 C2.65240764,35.6289961 3.72331723,34.5580865 5.03957452,34.5580865 C6.35583181,34.5580865 7.42674139,35.6289961 7.42674139,36.9452534 C7.42674139,38.2615107 6.35583181,39.3324203 5.03957452,39.3324203 Z" id="Shape"></path>
                    <path d="M17.4582797,18.570169 L15.1689867,16.2810086 C15.6010639,15.5277248 15.8323538,14.6720581 15.8323538,13.7803187 C15.8323538,12.4342218 15.3081055,11.1686255 14.3561564,10.2166764 C13.4042073,9.26485989 12.1387436,8.74061152 10.7926467,8.74061152 C9.44654981,8.74061152 8.18108613,9.26485989 7.22913703,10.216809 C5.26436607,12.1817126 5.26436607,15.3789247 7.22913703,17.3438283 C8.18108613,18.2956448 9.44654981,18.8198932 10.7927793,18.8198932 C11.6845188,18.8198932 12.5401855,18.5884706 13.2934692,18.156526 L15.5827623,20.4458191 C15.8417699,20.704694 16.1811454,20.8342642 16.520521,20.8342642 C16.8598965,20.8342642 17.1992721,20.704694 17.4582797,20.4458191 C17.9761623,19.9279365 17.9761623,19.0881842 17.4582797,18.570169 Z M12.4814346,15.4677804 C12.481302,15.4680456 12.4810368,15.4681783 12.4807715,15.4684435 C11.5500417,16.3994386 10.0355169,16.3994386 9.10491971,15.4684435 C8.17405725,14.537581 8.17405725,13.0230563 9.10478709,12.0923264 C9.57015201,11.6269615 10.1813994,11.3942127 10.7927793,11.3942127 C11.4041593,11.3942127 12.0154066,11.6269615 12.4807715,12.0923264 C12.9316808,12.5432357 13.1800788,13.1426799 13.1800788,13.7804513 C13.1800788,14.4176922 12.9318135,15.0170037 12.4814346,15.4677804 Z" id="Shape"></path>
                </g>
            </g>
        </g>
    </g>
</svg>