<?xml version="1.0" encoding="UTF-8"?>
<svg width="30px" height="31px" viewBox="0 0 30 31" version="1.1" xmlns="http://www.w3.org/2000/svg" xmlns:xlink="http://www.w3.org/1999/xlink">
    <!-- Generator: Sketch 45.2 (43514) - http://www.bohemiancoding.com/sketch -->
    <title>team-icon</title>
    <desc>Created with Sketch.</desc>
    <defs></defs>
    <g id="Page-1" stroke="none" stroke-width="1" fill="none" fill-rule="evenodd">
        <g id="Mobile-Copy-2" transform="translate(-237.000000, -496.000000)" fill-rule="nonzero" fill="#1F4DCE">
            <g id="team-icon" transform="translate(237.900451, 496.000000)">
                <path d="M25.8859951,23.0308788 C25.7805751,22.9212218 25.6343473,22.8581394 25.4852857,22.8581394 C25.3362241,22.8581394 25.1899964,22.9212218 25.0845764,23.0308788 C24.9791564,23.1405359 24.9185115,23.2926409 24.9185115,23.4476937 C24.9185115,23.6027465 24.9791564,23.7548515 25.0845764,23.8645086 C25.1899964,23.9741657 25.3356573,24.037248 25.4852857,24.037248 C25.6343473,24.037248 25.7805751,23.9741657 25.8859951,23.8645086 C25.9914151,23.7548515 26.0520599,23.6027465 26.0520599,23.4476937 C26.0520599,23.2926409 25.9914151,23.1405359 25.8859951,23.0308788 Z" id="Shape"></path>
                <path d="M28.5422958,25.7938839 L27.3488393,24.5524595 C27.127514,24.3222385 26.7686326,24.3222385 26.5473072,24.5524595 C26.3259819,24.7826804 26.3259819,25.1559862 26.5473072,25.3862071 L27.7407637,26.6276316 C27.8330345,26.723611 27.8838742,26.8512495 27.8838742,26.9870239 C27.8838742,27.1227393 27.8330345,27.2503778 27.7407637,27.3464162 L26.2877246,28.8578564 C26.0971752,29.0559467 25.7872063,29.0560646 25.5967702,28.8578564 L20.3562625,23.4067197 L22.5003127,21.1764948 L23.6020084,22.3224704 C23.8233337,22.5526914 24.1822151,22.5526914 24.4035405,22.3224704 C24.6248658,22.0922495 24.6248658,21.7189437 24.4035405,21.4887228 L22.9010787,19.9259323 C22.6797534,19.6957114 22.320872,19.6957703 22.0995466,19.9259323 L21.8511295,20.1843339 L20.2837154,18.5539216 C21.6426133,16.6231313 22.4462424,14.2442798 22.4462424,11.6734694 C22.4461857,5.2366569 17.4118705,0 11.223773,0 C5.0356755,0 0.0013602581,5.2366569 0.0013602581,11.6734694 C0.0013602581,18.110282 5.0356755,23.3469389 11.223773,23.3469389 C13.6934349,23.3469389 15.9788953,22.512189 17.834344,21.1005013 L19.4023248,22.7315032 L19.1539077,22.9899048 C18.9325824,23.2201258 18.9325824,23.5934315 19.1539077,23.8237114 L24.7952381,29.691781 C25.1114981,30.0207523 25.5268303,30.1852379 25.9423324,30.1851789 C26.3576646,30.18512 26.7731668,30.0206343 27.0894268,29.691722 L28.5424658,28.1802817 C28.8488639,27.8615687 29.0175926,27.437856 29.0175926,26.9870828 C29.0175926,26.5363096 28.8486939,26.1126559 28.5422958,25.7938839 Z M11.2237163,22.1677124 C5.66077077,22.1677124 1.13490868,17.4599447 1.13490868,11.6733515 C1.13490868,5.8867584 5.66077077,1.1790496 11.2237163,1.1790496 C16.7866619,1.1790496 21.312524,5.88681736 21.312524,11.6734105 C21.312524,17.4600036 16.7866619,22.1677124 11.2237163,22.1677124 Z M18.7191919,20.3534181 C19.0157848,20.0759739 19.2981517,19.7824937 19.564989,19.4740979 L21.0493707,21.0181405 L20.2038002,21.8976966 L18.7191919,20.3534181 Z" id="Shape"></path>
                <path d="M11.2537554,2.9511908 L11.223773,2.95113184 C10.9107436,2.95113184 10.6569988,3.21507529 10.6569988,3.54068612 C10.6569988,3.86629694 10.9106869,4.13024039 11.2237163,4.13024039 L11.2504114,4.13029935 C11.2509782,4.13029935 11.2515449,4.13029935 11.2521117,4.13029935 C11.5643476,4.13029935 11.8179224,3.86747605 11.8188859,3.54245478 C11.8197928,3.21684395 11.5667847,2.95213408 11.2537554,2.9511908 Z" id="Shape"></path>
                <path d="M17.8865439,6.37703174 C16.7960136,4.89465647 15.250137,3.79714223 13.533718,3.28652927 C13.2327609,3.19697597 12.9190513,3.37820496 12.8329583,3.69125828 C12.7468653,4.0043116 12.9210917,4.33062989 13.2220488,4.42018319 C16.3151624,5.34030055 18.4754223,8.3230325 18.4754223,11.6734105 C18.4754223,13.7244109 17.6840921,15.5864591 16.4026723,16.947563 C16.4252299,16.8839501 16.4382091,16.8155029 16.4382091,16.7436952 L16.4382091,15.4764483 C16.4382091,13.5685327 15.0947842,11.9815116 13.340448,11.6831971 C13.6514936,11.2360791 13.8355252,10.687381 13.8355252,10.0945252 L13.8355252,6.55183458 C13.8355252,6.22622376 13.5817804,5.96228031 13.268751,5.96228031 L10.735667,5.96228031 C9.56465485,5.96228031 8.61202076,6.95320313 8.61202076,8.17128123 L8.61202076,10.0945841 C8.61202076,10.6874399 8.79605235,11.2360791 9.10709803,11.683256 C7.35270514,11.9815116 6.00933691,13.5685327 6.00933691,15.4765072 L6.00933691,16.7437541 C6.00933691,16.8155029 6.02225936,16.8840091 6.04487365,16.947622 C4.76351052,15.5864591 3.97212369,13.7244698 3.97212369,11.6734694 C3.97212369,8.35050573 6.0196522,5.45538154 9.0670271,4.46941097 C9.36588714,4.37266511 9.53285882,4.04221994 9.43990785,3.73134797 C9.3469002,3.420476 9.02927993,3.2466754 8.73036321,3.34348021 C7.05888939,3.88427835 5.55824132,4.98916202 4.50466474,6.45449917 C3.41464458,7.97059695 2.83846192,9.77528154 2.83846192,11.6734694 C2.83846192,16.4829353 6.60008567,20.3957481 11.2237163,20.3957481 C15.847347,20.3957481 19.6089707,16.4829353 19.6089707,11.6734694 C19.6089707,9.74008515 19.0133477,7.9086348 17.8865439,6.37703174 Z M11.223773,11.6321417 C10.4087517,11.6321417 9.7455125,10.9424811 9.7455125,10.0945841 L9.7455125,9.6770618 L12.0881037,9.6770618 C12.3040446,9.6770618 12.5108039,9.63585196 12.7019201,9.56097857 L12.7019201,10.0945252 C12.7019768,10.9423632 12.0387943,11.6321417 11.223773,11.6321417 Z M12.1238671,12.8113092 L11.2237163,13.7476393 L10.3235655,12.8113092 L12.1238671,12.8113092 Z M9.74545582,8.17134018 L9.74545582,8.17134018 C9.7455125,7.6034815 10.1896368,7.14150677 10.7355537,7.14150677 L12.7018635,7.14150677 L12.7018635,7.85952492 C12.7018635,8.21160674 12.4265245,8.49801221 12.088047,8.49801221 L9.74545582,8.49801221 L9.74545582,8.17134018 Z M7.1427153,15.4765072 L7.14282865,15.4765072 C7.14282865,14.3136704 7.86274525,13.3229834 8.86315841,12.9598769 L10.8228936,14.9983787 C10.9335846,15.1134597 11.0786221,15.1710591 11.2236596,15.1710591 C11.3686972,15.1710591 11.5137914,15.1134597 11.6244257,14.9983787 L13.5841609,12.9598769 C14.5845173,13.3229834 15.3044906,14.3136704 15.3044906,15.4765072 L15.3044906,16.1541409 L7.1427153,16.1541409 L7.1427153,15.4765072 Z M11.2237163,19.2165216 C9.3762591,19.2165216 7.68829215,18.493787 6.4064756,17.3063658 C6.46003576,17.3238166 6.51699657,17.3332495 6.57605444,17.3332495 L15.8713782,17.3332495 C15.9304361,17.3332495 15.9873969,17.3238166 16.040957,17.3063658 C14.7591405,18.493846 13.0711735,19.2165216 11.2237163,19.2165216 Z" id="Shape"></path>
            </g>
        </g>
    </g>
</svg>