<?xml version="1.0" encoding="UTF-8"?>
<svg width="28px" height="25px" viewBox="0 0 28 25" version="1.1" xmlns="http://www.w3.org/2000/svg" xmlns:xlink="http://www.w3.org/1999/xlink">
    <!-- Generator: Sketch 45.2 (43514) - http://www.bohemiancoding.com/sketch -->
    <title>volunteer-icon</title>
    <desc>Created with Sketch.</desc>
    <defs></defs>
    <g id="Page-1" stroke="none" stroke-width="1" fill="none" fill-rule="evenodd">
        <g id="Mobile-Copy-2" transform="translate(-232.000000, -467.000000)" fill-rule="nonzero" fill="#1F4DCE">
            <g id="volunteer-icon" transform="translate(232.907088, 467.000000)">
                <path d="M15.8244095,15.8358031 C15.7527408,15.8136298 15.6773916,15.8086847 15.6038315,15.8199043 C15.5952435,15.8194789 15.5866045,15.8192662 15.5780165,15.818894 C16.2415906,15.1445481 16.6546311,14.2044943 16.6546311,13.1655911 L16.6546311,7.86967324 C16.6546311,7.57604935 16.4257208,7.33793856 16.1434423,7.33793856 L12.3568118,7.33793856 C10.7917053,7.33793856 9.51838528,8.66243647 9.51838528,10.2904485 L9.51838528,13.1655379 C9.51838528,14.2044412 9.93142577,15.1444949 10.5949999,15.8188408 C10.5864119,15.819213 10.5777728,15.8194257 10.5691848,15.8198511 C10.4956759,15.8086847 10.4202756,15.8135766 10.3486069,15.83575 C7.70596564,16.082528 5.62767673,18.3987111 5.62767673,21.2107368 L5.62767673,23.8217136 C5.62767673,24.1153375 5.85658705,24.3534483 6.13886546,24.3534483 L20.034202,24.3534483 C20.3164804,24.3534483 20.5453907,24.1153375 20.5453907,23.8217136 L20.5453907,21.21079 C20.5452885,18.3988175 18.4670507,16.0825812 15.8244095,15.8358031 Z M10.5406605,11.0352493 L10.5406605,10.2904485 L10.5406605,10.2904485 C10.5406605,9.24883347 11.3553931,8.40140792 12.3567096,8.40140792 L15.6321514,8.40140792 L15.6321514,9.82438309 C15.6321514,10.5433947 15.0697927,11.128356 14.3785633,11.128356 L10.5406605,11.128356 L10.5406605,11.0352493 L10.5406605,11.0352493 Z M10.5406605,13.1655911 L10.5406605,12.1918254 L14.3785633,12.1918254 C14.8415469,12.1918254 15.2723767,12.0469277 15.6321514,11.7989798 L15.6321514,13.1655379 C15.6321514,14.6256814 14.4901046,15.8136298 13.0863804,15.8136298 C11.6826561,15.8136298 10.5406605,14.6257345 10.5406605,13.1655911 Z M14.4440465,16.8770992 L13.0864315,18.2892801 L11.7288165,16.8770992 L14.4440465,16.8770992 Z M19.522911,23.2899789 L6.64995196,23.2899789 L6.64995196,21.7596465 L10.8214565,21.7596465 C11.1037349,21.7596465 11.3326452,21.5215357 11.3326452,21.2279118 C11.3326452,20.9342879 11.1037349,20.6961771 10.8214565,20.6961771 L6.68036769,20.6961771 C6.9063131,18.7198789 8.41529112,17.1481243 10.314255,16.9096945 L12.7249699,19.4173021 C12.8248051,19.5210967 12.9556183,19.5730472 13.0864315,19.5730472 C13.2172447,19.5730472 13.3480579,19.5210967 13.447893,19.4173021 L15.858608,16.9096945 C17.9198743,17.1684898 19.522911,18.9980293 19.522911,21.21079 L19.522911,23.2899789 Z" id="Shape"></path>
                <path d="M13.4477908,20.8519754 C13.3527608,20.7530728 13.2208741,20.6961771 13.0864315,20.6961771 C12.9519889,20.6961771 12.8201022,20.7530728 12.7250211,20.8519754 C12.62994,20.9508781 12.5752428,21.0880656 12.5752428,21.2279118 C12.5752428,21.367758 12.6298888,21.5049456 12.7250211,21.6038482 C12.8201022,21.7026977 12.9519889,21.7596465 13.0864315,21.7596465 C13.2208741,21.7596465 13.3527608,21.7027509 13.4477908,21.6038482 C13.5428719,21.5049456 13.5976202,21.367758 13.5976202,21.2279118 C13.5976202,21.0880656 13.542923,20.9508781 13.4477908,20.8519754 Z" id="Shape"></path>
                <path d="M13.0929236,0 C12.0218298,0 11.1504064,0.906448106 11.1504064,2.02059178 C11.1504064,2.95070208 11.7579031,3.73559564 12.5817349,3.96966524 L12.5817349,5.26832085 C12.5817349,5.56194474 12.8106452,5.80005552 13.0929236,5.80005552 C13.375202,5.80005552 13.6041123,5.56194474 13.6041123,5.26832085 L13.6041123,3.96966524 C14.4279441,3.73559564 15.0354408,2.95070208 15.0354408,2.02059178 C15.0354408,0.906448106 14.1640173,0 13.0929236,0 Z M13.0929236,2.9777142 C12.5855688,2.9777142 12.1727839,2.54833845 12.1727839,2.02059178 C12.1727839,1.49284511 12.5855688,1.06346936 13.0929236,1.06346936 C13.6002784,1.06346936 14.0130633,1.49284511 14.0130633,2.02059178 C14.0130633,2.54833845 13.6002784,2.9777142 13.0929236,2.9777142 Z" id="Shape"></path>
                <path d="M23.3553441,4.14758366 C22.9884128,3.76595769 22.5006365,3.55576297 21.98178,3.55576297 C21.4629234,3.55576297 20.9751471,3.76595769 20.6082158,4.14763684 C19.9759776,4.80533946 19.8720018,5.8071276 20.2953683,6.57862144 L19.4125454,7.49692723 C19.2129262,7.70456962 19.2129262,8.04126402 19.4125454,8.24895959 C19.5124317,8.35270102 19.6432449,8.4046515 19.7740581,8.4046515 C19.9049224,8.4046515 20.0356845,8.35270102 20.1355196,8.24890641 L21.0179336,7.33102601 C21.3082888,7.50421199 21.6380567,7.5969997 21.98178,7.5969997 C22.5006365,7.5969997 22.9884128,7.38680498 23.355293,7.005179 C23.7222753,6.62355302 23.9243482,6.11611862 23.9243482,5.57640792 C23.9243482,5.03669722 23.7222753,4.52926282 23.3553441,4.14758366 Z M22.6324721,6.25325299 C22.2737198,6.62642439 21.6899423,6.62642439 21.3312412,6.25325299 C20.9724378,5.88002842 20.9724378,5.27278742 21.3311901,4.89961602 C21.5105662,4.71297715 21.7461731,4.61971089 21.9818311,4.61971089 C22.2174891,4.61971089 22.453096,4.71297715 22.6324721,4.89961602 C22.8062763,5.08040581 22.9020219,5.32074989 22.9020219,5.57646109 C22.9020219,5.83211913 22.8062763,6.0724632 22.6324721,6.25325299 Z" id="Shape"></path>
                <path d="M24.2303458,12.8059258 C23.3361745,12.8059258 22.5816088,13.4378393 22.3565835,14.2947829 L21.1081073,14.2947829 C20.8258289,14.2947829 20.5969186,14.5328937 20.5969186,14.8265176 C20.5969186,15.1201414 20.8258289,15.3582522 21.1081073,15.3582522 L22.3565835,15.3582522 C22.5816088,16.2151958 23.3361745,16.8471093 24.2303458,16.8471093 C25.3014396,16.8471093 26.172863,15.9406612 26.172863,14.8265176 C26.172863,13.7123739 25.3014396,12.8059258 24.2303458,12.8059258 Z M24.2303458,15.78364 C23.722991,15.78364 23.3102061,15.3542642 23.3102061,14.8265176 C23.3102061,14.2987709 23.722991,13.8693951 24.2303458,13.8693951 C24.7377006,13.8693951 25.1504855,14.2987709 25.1504855,14.8265176 C25.1504855,15.3542642 24.7377006,15.78364 24.2303458,15.78364 Z" id="Shape"></path>
                <path d="M19.5309367,14.4504216 C19.4359067,14.351519 19.30402,14.2946234 19.1695774,14.2946234 C19.0351348,14.2946234 18.9032481,14.3514658 18.808167,14.4504216 C18.7130859,14.5493774 18.6583887,14.6865118 18.6583887,14.826358 C18.6583887,14.966736 18.7130347,15.1033918 18.808167,15.2022413 C18.9032481,15.3017288 19.0351348,15.3580927 19.1695774,15.3580927 C19.30402,15.3580927 19.4359067,15.3016757 19.5309367,15.2022413 C19.6260178,15.1033918 19.6807661,14.9662043 19.6807661,14.826358 C19.6807661,14.6865118 19.6260689,14.549856 19.5309367,14.4504216 Z" id="Shape"></path>
                <path d="M5.0647557,14.2812768 L3.81627947,14.2812768 C3.59125419,13.4243332 2.8366885,12.7924197 1.94251718,12.7924197 C0.871423429,12.7924197 0,13.6988678 0,14.8130115 C0,15.9271552 0.871423429,16.8336033 1.94251718,16.8336033 C2.8366885,16.8336033 3.59125419,16.2016898 3.81627947,15.3447462 L5.0647557,15.3447462 C5.34703412,15.3447462 5.57594443,15.1066354 5.57594443,14.8130115 C5.57594443,14.5193876 5.34708524,14.2812768 5.0647557,14.2812768 Z M1.94251718,15.7701339 C1.43516236,15.7701339 1.02237746,15.3407582 1.02237746,14.8130115 C1.02237746,14.2852648 1.43516236,13.8558891 1.94251718,13.8558891 C2.44987199,13.8558891 2.86265689,14.2852648 2.86265689,14.8130115 C2.86265689,15.3407582 2.44987199,15.7701339 1.94251718,15.7701339 Z" id="Shape"></path>
                <path d="M6.72933957,7.44561483 L5.84692558,6.52778761 C6.01347087,6.22576231 6.10262218,5.88268709 6.10262218,5.5251487 C6.10262218,4.985438 5.90054928,4.47800359 5.53361801,4.09632444 C5.16668674,3.71469846 4.67891045,3.50450374 4.16005389,3.50450374 C3.64119733,3.50450374 3.15342104,3.71469846 2.78648977,4.09637761 C2.02916367,4.88419571 2.02916367,6.16610168 2.78648977,6.95391978 C3.15342104,7.33554575 3.64119733,7.54574047 4.16010501,7.54574047 C4.50382831,7.54574047 4.83364728,7.45295277 5.12400248,7.27976679 L6.00641646,8.19764719 C6.10625162,8.3014418 6.23706482,8.35339228 6.36787801,8.35339228 C6.49869121,8.35339228 6.62950441,8.3014418 6.72933957,8.19764719 C6.92895877,7.9900048 6.92895877,7.6533104 6.72933957,7.44561483 Z M4.81100162,6.2017279 C4.8109505,6.20183425 4.81084826,6.20188742 4.81074602,6.20199377 C4.45199377,6.57527151 3.86821624,6.57527151 3.50951511,6.20199377 C3.15071174,5.8287692 3.15071174,5.22152819 3.50946399,4.8483568 C3.68884012,4.6617711 3.924447,4.56845166 4.16010501,4.56845166 C4.39576301,4.56845166 4.6313699,4.6617711 4.81074602,4.8483568 C4.98455019,5.02914659 5.08029584,5.26949066 5.08029584,5.52520187 C5.08029584,5.78070038 4.98460131,6.02099128 4.81100162,6.2017279 Z" id="Shape"></path>
            </g>
        </g>
    </g>
</svg>