<?xml version="1.0" encoding="UTF-8"?>
<svg width="164px" height="164px" viewBox="0 0 164 164" version="1.1" xmlns="http://www.w3.org/2000/svg" xmlns:xlink="http://www.w3.org/1999/xlink">
    <!-- Generator: Sketch 45.2 (43514) - http://www.bohemiancoding.com/sketch -->
    <title>volunteer</title>
    <desc>Created with Sketch.</desc>
    <defs>
        <linearGradient x1="-9.36419213%" y1="-8.81119348%" x2="104.902359%" y2="100%" id="linearGradient-1">
            <stop stop-color="#EAAC45" offset="0%"></stop>
            <stop stop-color="#EF935F" offset="100%"></stop>
        </linearGradient>
        <rect id="path-2" x="0" y="0" width="132" height="132" rx="15"></rect>
        <filter x="-18.2%" y="-18.2%" width="136.4%" height="136.4%" filterUnits="objectBoundingBox" id="filter-3">
            <feOffset dx="0" dy="0" in="SourceAlpha" result="shadowOffsetOuter1"></feOffset>
            <feGaussianBlur stdDeviation="8" in="shadowOffsetOuter1" result="shadowBlurOuter1"></feGaussianBlur>
            <feColorMatrix values="0 0 0 0 0   0 0 0 0 0   0 0 0 0 0  0 0 0 0.128113678 0" type="matrix" in="shadowBlurOuter1"></feColorMatrix>
        </filter>
    </defs>
    <g id="Page-1" stroke="none" stroke-width="1" fill="none" fill-rule="evenodd">
        <g id="Mobile-Copy-2" transform="translate(-164.000000, -124.000000)">
            <g id="volunteer" transform="translate(180.000000, 140.000000)">
                <g id="Group-Copy">
                    <g id="Rectangle-2">
                        <use fill="black" fill-opacity="1" filter="url(#filter-3)" xlink:href="#path-2"></use>
                        <use fill="url(#linearGradient-1)" fill-rule="evenodd" xlink:href="#path-2"></use>
                    </g>
                </g>
                <g id="Group-3" transform="translate(24.000000, 11.000000)" font-size="18" font-family="OpenSans, Open Sans" fill="#FFFFFF" font-weight="normal">
                    <text id="Volunteer">
                        <tspan x="0.933105469" y="107">Volunteer</tspan>
                    </text>
                </g>
                <g id="recruitment-(1)" transform="translate(27.055525, 11.000000)" fill-rule="nonzero" fill="#FFFFFF">
                    <path d="M67.1573991,57.4415038 C66.8839024,57.1680071 66.5045361,57.010673 66.1178177,57.010673 C65.7310993,57.010673 65.351733,57.1680071 65.0782363,57.4415038 C64.8047397,57.7150004 64.6474056,58.0943667 64.6474056,58.4810851 C64.6474056,58.8678035 64.8047397,59.2471699 65.0782363,59.5206665 C65.351733,59.7941632 65.7296289,59.9514973 66.1178177,59.9514973 C66.5045361,59.9514973 66.8839024,59.7941632 67.1573991,59.5206665 C67.4308958,59.2471699 67.5882299,58.8678035 67.5882299,58.4810851 C67.5882299,58.0943667 67.4308958,57.7150004 67.1573991,57.4415038 Z" id="Shape"></path>
                    <path d="M74.0487797,64.3327374 L70.9525329,61.2364905 C70.3783369,60.6622945 69.4472719,60.6622945 68.873076,61.2364905 C68.2988801,61.8106864 68.2988801,62.7417514 68.873076,63.3159473 L71.9693229,66.4121942 C72.208706,66.6515773 72.3406019,66.9699215 72.3406019,67.3085575 C72.3406019,67.6470463 72.208706,67.9653906 71.9693229,68.2049207 L68.1996272,71.9746164 C67.7052747,72.4686748 66.9011063,72.4689689 66.4070478,71.9746164 L52.8113229,58.3788915 L58.3737451,52.8164694 L61.2319322,55.6746565 C61.8061281,56.2488525 62.7371931,56.2488525 63.3113891,55.6746565 C63.885585,55.1004606 63.885585,54.1693956 63.3113891,53.5951996 L59.4134735,49.6974311 C58.8392775,49.1232352 57.9082126,49.1233822 57.3340166,49.6974311 L56.689535,50.3419127 L52.6231102,46.2754879 C56.1485703,41.4598881 58.2334677,35.5267751 58.2334677,29.1148959 C58.2333207,13.0607889 45.1725318,0 29.1184248,0 C13.0643179,0 0.00352898917,13.0607889 0.00352898917,29.1148959 C0.00352898917,45.1690028 13.0643179,58.2297917 29.1184248,58.2297917 C35.5255988,58.2297917 41.4548887,56.1478351 46.268577,52.6269332 L50.3364722,56.6948285 L49.6919906,57.3393101 C49.1177946,57.9135061 49.1177946,58.844571 49.6919906,59.418914 L64.3275909,74.0545143 C65.1480809,74.8750043 66.2255989,75.2852493 67.3035581,75.2851023 C68.3810761,75.2849552 69.4590352,74.8747102 70.2795252,74.0543673 L74.0492209,70.2846717 C74.8441257,69.4897669 75.2818674,68.4329816 75.2818674,67.3087045 C75.2818674,66.1844274 74.8436846,65.1277892 74.0487797,64.3327374 Z M29.1182778,55.2886733 C14.6860355,55.2886733 2.9443533,43.5469911 2.9443533,29.1146018 C2.9443533,14.6822124 14.6860355,2.94067727 29.1182778,2.94067727 C43.5505201,2.94067727 55.2922023,14.6823594 55.2922023,29.1147488 C55.2922023,43.5471382 43.5505201,55.2886733 29.1182778,55.2886733 Z M48.5641845,50.763627 C49.3336511,50.071651 50.0662105,49.3396798 50.7584805,48.5705072 L54.6094899,52.4215167 L52.415782,54.6152245 L48.5641845,50.763627 Z" id="Shape"></path>
                    <path d="M29.1962096,7.36058916 L29.1184248,7.36044212 C28.3063162,7.36044212 27.6480127,8.01874564 27.6480127,8.83085427 C27.6480127,9.64296291 28.3061692,10.3012664 29.1182778,10.3012664 L29.1875342,10.3014135 C29.1890046,10.3014135 29.190475,10.3014135 29.1919455,10.3014135 C30.0019955,10.3014135 30.6598579,9.64590373 30.6623576,8.83526551 C30.6647103,8.02315688 30.0083183,7.36294182 29.1962096,7.36058916 Z" id="Shape"></path>
                    <path d="M46.404002,15.9050071 C43.5747819,12.2078028 39.5642328,9.47048356 35.1112366,8.19695959 C34.3304478,7.97360399 33.5165746,8.42560868 33.293219,9.20639754 C33.0698634,9.98718639 33.5218681,10.8010595 34.302657,11.0244151 C42.3272843,13.3192874 47.9317602,20.7585436 47.9317602,29.1147488 C47.9317602,34.2301657 45.8787707,38.8743154 42.5543159,42.2690559 C42.6128383,42.1103985 42.6465107,41.9396836 42.6465107,41.7605874 L42.6465107,38.5999365 C42.6465107,33.8413887 39.1611928,29.8831862 34.6098261,29.1391577 C35.4167883,28.0239971 35.8942311,26.6554845 35.8942311,25.176838 L35.8942311,16.3409843 C35.8942311,15.5288757 35.2359276,14.8705722 34.4238189,14.8705722 L27.8521059,14.8705722 C24.8140873,14.8705722 22.3426186,17.3420409 22.3426186,20.3800595 L22.3426186,25.1769851 C22.3426186,26.6556315 22.8200614,28.0239971 23.6270236,29.1393047 C19.0755098,29.8831862 15.5903389,33.8413887 15.5903389,38.6000835 L15.5903389,41.7607345 C15.5903389,41.9396836 15.6238643,42.1105455 15.6825338,42.269203 C12.358226,38.8743154 10.3050895,34.2303127 10.3050895,29.1148959 C10.3050895,20.8270648 15.6171004,13.6063118 23.5230655,11.1471945 C24.2984138,10.9058999 24.7315972,10.0817339 24.4904496,9.30638556 C24.249155,8.53103723 23.425136,8.09755973 22.6496407,8.33900141 C18.3132482,9.68781048 14.4200379,12.4435099 11.6866888,16.0982193 C8.8587921,19.8795312 7.36397111,24.3806098 7.36397111,29.1148959 C7.36397111,41.1102241 17.1229495,50.8692025 29.1182778,50.8692025 C41.1136061,50.8692025 50.8725845,41.1102241 50.8725845,29.1148959 C50.8725845,24.2928262 49.3273284,19.7249909 46.404002,15.9050071 Z M29.1184248,29.01182 C27.0039722,29.01182 25.2832959,27.2917318 25.2832959,25.1769851 L25.2832959,24.1356392 L31.3608034,24.1356392 C31.9210304,24.1356392 32.4574368,24.0328574 32.9532597,23.846115 L32.9532597,25.176838 C32.9534068,27.2914377 31.2328775,29.01182 29.1184248,29.01182 Z M31.4535864,31.9527913 L29.1182778,34.2880999 L26.7829692,31.9527913 L31.4535864,31.9527913 Z M25.2831488,20.3802065 L25.2831488,20.3802065 C25.2832959,18.9639055 26.4355108,17.8116906 27.8518118,17.8116906 L32.9531127,17.8116906 L32.9531127,19.6025055 C32.9531127,20.4806357 32.2387865,21.1949619 31.3606563,21.1949619 L25.2831488,21.1949619 L25.2831488,20.3802065 Z M18.5307221,38.6000835 L18.5310162,38.6000835 C18.5310162,35.6998426 20.3987337,33.228962 22.9941582,32.3233352 L28.0784023,37.4075793 C28.3655738,37.6946037 28.7418523,37.838263 29.1181308,37.838263 C29.4944092,37.838263 29.8708347,37.6946037 30.1578592,37.4075793 L35.2421033,32.3233352 C37.8373808,33.228962 39.7052453,35.6998426 39.7052453,38.6000835 L39.7052453,40.2901753 L18.5307221,40.2901753 L18.5307221,38.6000835 Z M29.1182778,47.9280842 C24.3253223,47.9280842 19.9461409,46.1255059 16.6206567,43.1639488 C16.7596107,43.207473 16.9073871,43.2309996 17.0606041,43.2309996 L41.1759515,43.2309996 C41.3291685,43.2309996 41.4769449,43.207473 41.6158989,43.1639488 C38.2904147,46.1256529 33.9112333,47.9280842 29.1182778,47.9280842 Z" id="Shape"></path>
                </g>
            </g>
        </g>
    </g>
</svg>